<svg xmlns="http://www.w3.org/2000/svg" xmlns:xlink="http://www.w3.org/1999/xlink" width="44" height="44" viewBox="0 0 44 44">
  <defs>
    <style>
      .cls-1 {
        fill: #919eab;
      }

      .cls-2 {
        opacity: 0.51;
      }

      .cls-3 {
        clip-path: url(#clip-path);
      }
    </style>
    <clipPath id="clip-path">
      <path id="Icon" class="cls-1" d="M38.438,44H2.562A2.4,2.4,0,0,1,0,41.8V6.6A2.4,2.4,0,0,1,2.562,4.4H9.188L13.563.645A2.765,2.765,0,0,1,15.376,0H25.624a2.765,2.765,0,0,1,1.813.645L31.81,4.4h6.628A2.4,2.4,0,0,1,41,6.6V41.8A2.4,2.4,0,0,1,38.438,44ZM5.124,8.8V39.6H35.876V8.8H31.81l-4.373,3.756a2.765,2.765,0,0,1-1.813.645H15.376a2.765,2.765,0,0,1-1.813-.645L9.188,8.8ZM16.436,4.4h0L13.874,6.6l2.562,2.2h8.127l2.562-2.2L24.564,4.4H16.436ZM28.187,33H23.062A2.4,2.4,0,0,1,20.5,30.8a2.4,2.4,0,0,1,2.562-2.2h5.124a2.4,2.4,0,0,1,2.562,2.2A2.4,2.4,0,0,1,28.187,33ZM12.813,33a2.406,2.406,0,0,1-2.565-2.2,2.407,2.407,0,0,1,2.565-2.2,2.4,2.4,0,0,1,2.562,2.2A2.4,2.4,0,0,1,12.813,33Zm15.373-8.8H23.062A2.4,2.4,0,0,1,20.5,22a2.4,2.4,0,0,1,2.562-2.2h5.124A2.4,2.4,0,0,1,30.749,22,2.4,2.4,0,0,1,28.187,24.2Zm-15.373,0A2.406,2.406,0,0,1,10.249,22a2.406,2.406,0,0,1,2.565-2.2A2.4,2.4,0,0,1,15.376,22,2.4,2.4,0,0,1,12.813,24.2Z" transform="translate(-0.455)"/>
    </clipPath>
  </defs>
  <g id="Polaris-icon_Major_Mono_Checklist_Alternate" data-name="Polaris-icon/Major/Mono/Checklist Alternate" class="cls-2">
    <g id="Group_26" data-name="Group 26" transform="translate(1.455 0)">
      <path id="Icon-2" data-name="Icon" class="cls-1" d="M38.438,44H2.562A2.4,2.4,0,0,1,0,41.8V6.6A2.4,2.4,0,0,1,2.562,4.4H9.188L13.563.645A2.765,2.765,0,0,1,15.376,0H25.624a2.765,2.765,0,0,1,1.813.645L31.81,4.4h6.628A2.4,2.4,0,0,1,41,6.6V41.8A2.4,2.4,0,0,1,38.438,44ZM5.124,8.8V39.6H35.876V8.8H31.81l-4.373,3.756a2.765,2.765,0,0,1-1.813.645H15.376a2.765,2.765,0,0,1-1.813-.645L9.188,8.8ZM16.436,4.4h0L13.874,6.6l2.562,2.2h8.127l2.562-2.2L24.564,4.4H16.436ZM28.187,33H23.062A2.4,2.4,0,0,1,20.5,30.8a2.4,2.4,0,0,1,2.562-2.2h5.124a2.4,2.4,0,0,1,2.562,2.2A2.4,2.4,0,0,1,28.187,33ZM12.813,33a2.406,2.406,0,0,1-2.565-2.2,2.407,2.407,0,0,1,2.565-2.2,2.4,2.4,0,0,1,2.562,2.2A2.4,2.4,0,0,1,12.813,33Zm15.373-8.8H23.062A2.4,2.4,0,0,1,20.5,22a2.4,2.4,0,0,1,2.562-2.2h5.124A2.4,2.4,0,0,1,30.749,22,2.4,2.4,0,0,1,28.187,24.2Zm-15.373,0A2.406,2.406,0,0,1,10.249,22a2.406,2.406,0,0,1,2.565-2.2A2.4,2.4,0,0,1,15.376,22,2.4,2.4,0,0,1,12.813,24.2Z" transform="translate(-0.455)"/>
    </g>
  </g>
</svg>
