<svg xmlns="http://www.w3.org/2000/svg" width="17.012" height="16.848" viewBox="0 0 17.012 16.848">
  <defs>
    <style>
      .cls-1 {
        fill: none;
        stroke: #2b2a35;
      }
    </style>
  </defs>
  <path id="Union_39" data-name="Union 39" class="cls-1" d="M9.852,15.848,8.6,11.095l.76-1.363c.284.03.569.066.845.116,2.553.456,4.573,1.669,5.4,3.243a3.161,3.161,0,0,1,.142,2.757Zm-9.6,0a3.719,3.719,0,0,1-.159-.474,3.287,3.287,0,0,1,.582-2.737c1.091-1.542,3.317-2.623,5.968-2.908L7.4,11.095,6.15,15.848ZM4.085,4.231A4.088,4.088,0,0,1,8,0a4.087,4.087,0,0,1,3.915,4.231A4.087,4.087,0,0,1,8,8.462,4.089,4.089,0,0,1,4.085,4.231Z" transform="translate(0.505 0.5)"/>
</svg>
