<svg xmlns="http://www.w3.org/2000/svg" width="12.9" height="15.002" viewBox="0 0 12.9 15.002">
  <defs>
    <style>
      .cls-1 {
        fill: none;
        stroke: #32325d;
        stroke-linecap: round;
        stroke-linejoin: round;
        fill-rule: evenodd;
      }
    </style>
  </defs>
  <g id="Group_11580" data-name="Group 11580" transform="translate(0.5 -2.5)">
    <g id="notification-2036109" transform="translate(0 3)">
      <path id="Path_11723" data-name="Path 11723" class="cls-1" d="M0,8.251V8.1A2.52,2.52,0,0,1,.422,6.825a3.409,3.409,0,0,0,.835-1.62c0-.467,0-.94.041-1.406A4.549,4.549,0,0,1,5.923,0h.054a4.561,4.561,0,0,1,4.632,3.8c.041.467,0,.94.034,1.406a3.468,3.468,0,0,0,.835,1.626A2.455,2.455,0,0,1,11.9,8.1v.147a2.5,2.5,0,0,1-.591,1.673,3.153,3.153,0,0,1-2,.96,31.552,31.552,0,0,1-6.73,0,3.188,3.188,0,0,1-2-.96A2.523,2.523,0,0,1,0,8.251ZM4.238,13.2a2.16,2.16,0,0,0,3,.353,2.022,2.022,0,0,0,.367-.353" transform="translate(0 0)"/>
    </g>
  </g>
</svg>
