<svg xmlns="http://www.w3.org/2000/svg" xmlns:xlink="http://www.w3.org/1999/xlink" width="43.661" height="43.661" viewBox="0 0 43.661 43.661">
  <defs>
    <style>
      .cls-1 {
        fill: #919eab;
      }

      .cls-2 {
        opacity: 0.51;
      }

      .cls-3 {
        clip-path: url(#clip-path);
      }
    </style>
    <clipPath id="clip-path">
      <path id="Icon" class="cls-1" d="M28.38,43.661a2.168,2.168,0,0,1-1.211-.368l-5.338-3.56-5.338,3.56a2.176,2.176,0,0,1-2.423,0l-5.338-3.56L3.4,43.293a2.2,2.2,0,0,1-2.242.108A2.179,2.179,0,0,1,0,41.476V2.183A2.185,2.185,0,0,1,2.183,0H6.549a2.183,2.183,0,1,1,0,4.365H4.366V37.4l3.155-2.106a2.176,2.176,0,0,1,2.423,0l5.338,3.56,5.336-3.56a2.179,2.179,0,0,1,2.425,0l5.336,3.56,5.338-3.56a2.176,2.176,0,0,1,2.423,0L39.3,37.4V4.365H37.113a2.183,2.183,0,1,1,0-4.365h4.366a2.185,2.185,0,0,1,2.183,2.183V41.476a2.179,2.179,0,0,1-2.183,2.183,2.2,2.2,0,0,1-1.212-.365l-5.336-3.56-5.338,3.56A2.168,2.168,0,0,1,28.38,43.661ZM21.833,26.195a2.186,2.186,0,0,1-2.185-2.183v-.436a9.843,9.843,0,0,1-3.725-2.385A2.183,2.183,0,1,1,19.009,18.1a4.763,4.763,0,0,0,2.873,1.544,2.188,2.188,0,0,0,2.134-2.183c0-1.409-.279-1.64-2.713-2.25-2.252-.562-6.02-1.5-6.02-6.483a6.552,6.552,0,0,1,4.366-6.143v-.4a2.184,2.184,0,0,1,4.368,0v.436a9.875,9.875,0,0,1,3.725,2.387,2.183,2.183,0,1,1-3.087,3.086A4.785,4.785,0,0,0,21.78,6.548a2.187,2.187,0,0,0-2.132,2.183c0,1.409.279,1.64,2.711,2.249,2.252.564,6.022,1.508,6.022,6.483a6.554,6.554,0,0,1-4.366,6.145v.4A2.185,2.185,0,0,1,21.833,26.195Z"/>
    </clipPath>
  </defs>
  <g id="Polaris-icon_Major_Mono_Billing_Statement_Dollar_" data-name="Polaris-icon/Major/Mono/Billing Statement (Dollar)" class="cls-2">
    <g id="Group_6" data-name="Group 6" transform="translate(0 0)">
      <path id="Icon-2" data-name="Icon" class="cls-1" d="M28.38,43.661a2.168,2.168,0,0,1-1.211-.368l-5.338-3.56-5.338,3.56a2.176,2.176,0,0,1-2.423,0l-5.338-3.56L3.4,43.293a2.2,2.2,0,0,1-2.242.108A2.179,2.179,0,0,1,0,41.476V2.183A2.185,2.185,0,0,1,2.183,0H6.549a2.183,2.183,0,1,1,0,4.365H4.366V37.4l3.155-2.106a2.176,2.176,0,0,1,2.423,0l5.338,3.56,5.336-3.56a2.179,2.179,0,0,1,2.425,0l5.336,3.56,5.338-3.56a2.176,2.176,0,0,1,2.423,0L39.3,37.4V4.365H37.113a2.183,2.183,0,1,1,0-4.365h4.366a2.185,2.185,0,0,1,2.183,2.183V41.476a2.179,2.179,0,0,1-2.183,2.183,2.2,2.2,0,0,1-1.212-.365l-5.336-3.56-5.338,3.56A2.168,2.168,0,0,1,28.38,43.661ZM21.833,26.195a2.186,2.186,0,0,1-2.185-2.183v-.436a9.843,9.843,0,0,1-3.725-2.385A2.183,2.183,0,1,1,19.009,18.1a4.763,4.763,0,0,0,2.873,1.544,2.188,2.188,0,0,0,2.134-2.183c0-1.409-.279-1.64-2.713-2.25-2.252-.562-6.02-1.5-6.02-6.483a6.552,6.552,0,0,1,4.366-6.143v-.4a2.184,2.184,0,0,1,4.368,0v.436a9.875,9.875,0,0,1,3.725,2.387,2.183,2.183,0,1,1-3.087,3.086A4.785,4.785,0,0,0,21.78,6.548a2.187,2.187,0,0,0-2.132,2.183c0,1.409.279,1.64,2.711,2.249,2.252.564,6.022,1.508,6.022,6.483a6.554,6.554,0,0,1-4.366,6.145v.4A2.185,2.185,0,0,1,21.833,26.195Z"/>
    </g>
  </g>
</svg>
