<svg id="Group_45" data-name="Group 45" xmlns="http://www.w3.org/2000/svg" xmlns:xlink="http://www.w3.org/1999/xlink" width="44" height="44" viewBox="0 0 44 44">
  <defs>
    <style>
      .cls-1 {
        fill: #919eab;
      }

      .cls-2 {
        clip-path: url(#clip-path);
      }
    </style>
    <clipPath id="clip-path">
      <path id="Icon" class="cls-1" d="M41.8,44H28.6a2.2,2.2,0,0,1-2.2-2.2V33a2.2,2.2,0,0,1,2.2-2.2V28.6a6.6,6.6,0,0,1,13.2,0v2.2A2.2,2.2,0,0,1,44,33v8.8A2.2,2.2,0,0,1,41.8,44Zm-11-8.8v4.4h8.8V35.2Zm4.4-8.8A2.2,2.2,0,0,0,33,28.6v2.2h4.4V28.6A2.2,2.2,0,0,0,35.2,26.4ZM19.8,35.2H2.2A2.2,2.2,0,0,1,0,33V2.2A2.2,2.2,0,0,1,2.2,0H41.8A2.2,2.2,0,0,1,44,2.2V19.8a2.2,2.2,0,1,1-4.4,0V17.6H4.4V30.8H19.8a2.2,2.2,0,0,1,0,4.4ZM4.4,4.4V8.8H39.6V4.4Zm13.2,22H11A2.2,2.2,0,1,1,11,22h6.6a2.2,2.2,0,0,1,0,4.4Z"/>
    </clipPath>
  </defs>
  <path id="Icon-2" data-name="Icon" class="cls-1" d="M41.8,44H28.6a2.2,2.2,0,0,1-2.2-2.2V33a2.2,2.2,0,0,1,2.2-2.2V28.6a6.6,6.6,0,0,1,13.2,0v2.2A2.2,2.2,0,0,1,44,33v8.8A2.2,2.2,0,0,1,41.8,44Zm-11-8.8v4.4h8.8V35.2Zm4.4-8.8A2.2,2.2,0,0,0,33,28.6v2.2h4.4V28.6A2.2,2.2,0,0,0,35.2,26.4ZM19.8,35.2H2.2A2.2,2.2,0,0,1,0,33V2.2A2.2,2.2,0,0,1,2.2,0H41.8A2.2,2.2,0,0,1,44,2.2V19.8a2.2,2.2,0,1,1-4.4,0V17.6H4.4V30.8H19.8a2.2,2.2,0,0,1,0,4.4ZM4.4,4.4V8.8H39.6V4.4Zm13.2,22H11A2.2,2.2,0,1,1,11,22h6.6a2.2,2.2,0,0,1,0,4.4Z"/>
</svg>
