<svg id="Group_11297" data-name="Group 11297" xmlns="http://www.w3.org/2000/svg" width="35.826" height="28.879" viewBox="0 0 35.826 28.879">
  <defs>
    <style>
      .cls-1 {
        fill: #ffd064;
      }

      .cls-2 {
        fill: #ffc250;
      }

      .cls-3 {
        fill: #29231a;
      }
    </style>
  </defs>
  <g id="Group_11229" data-name="Group 11229" transform="translate(0.878 0.877)">
    <path id="Path_11877" data-name="Path 11877" class="cls-1" d="M136.979,250.657H108.5a2.8,2.8,0,0,1-2.8-2.8V226.33a2.8,2.8,0,0,1,2.8-2.8h28.476a2.8,2.8,0,0,1,2.8,2.8v21.53A2.8,2.8,0,0,1,136.979,250.657Z" transform="translate(-105.705 -223.532)"/>
  </g>
  <path id="Path_11878" data-name="Path 11878" class="cls-2" d="M320.491,223.532h-7.814a2.8,2.8,0,0,1,2.8,2.8v21.53a2.8,2.8,0,0,1-2.8,2.8h7.814a2.8,2.8,0,0,0,2.8-2.8V226.33A2.8,2.8,0,0,0,320.491,223.532Z" transform="translate(-288.34 -222.656)"/>
  <path id="Path_11879" data-name="Path 11879" class="cls-3" d="M123.613,231.113h9.31a.876.876,0,1,0,0-1.753h-9.31v-3.879a1.878,1.878,0,0,1,1.876-1.876h7.434a.876.876,0,0,0,0-1.753h-7.434a3.632,3.632,0,0,0-3.628,3.618,3.58,3.58,0,0,0-1.849-.513h-3.247v-8.285a.876.876,0,0,0-1.753,0v8.285h-3.247a3.58,3.58,0,0,0-1.849.513,3.632,3.632,0,0,0-3.628-3.618H98.851a.876.876,0,0,0,0,1.753h7.434a1.878,1.878,0,0,1,1.876,1.876v3.879h-9.31a.876.876,0,0,0,0,1.753h9.31v3.879a1.878,1.878,0,0,1-1.876,1.876H98.851a.876.876,0,0,0,0,1.753h7.434A3.632,3.632,0,0,0,109.914,235a3.58,3.58,0,0,0,1.849.513h3.247V243.8a.876.876,0,1,0,1.753,0v-8.285h3.247A3.58,3.58,0,0,0,121.86,235a3.632,3.632,0,0,0,3.628,3.619h7.434a.876.876,0,1,0,0-1.753h-7.434a1.878,1.878,0,0,1-1.876-1.876v-3.879Zm-1.753.8a1.851,1.851,0,0,1-1.849,1.849h-8.248a1.851,1.851,0,0,1-1.849-1.849V228.56a1.851,1.851,0,0,1,1.849-1.849h8.248a1.851,1.851,0,0,1,1.849,1.849Z" transform="translate(-97.973 -215.797)"/>
  <g id="Group_11235" data-name="Group 11235" transform="translate(0)">
    <g id="Group_11234" data-name="Group 11234" transform="translate(0)">
      <g id="Group_11233" data-name="Group 11233">
        <path id="Path_11880" data-name="Path 11880" class="cls-3" d="M130.123,244.678H101.647A3.678,3.678,0,0,1,97.973,241v-21.53a3.678,3.678,0,0,1,3.674-3.674h28.476a3.678,3.678,0,0,1,3.674,3.674V241A3.678,3.678,0,0,1,130.123,244.678Zm-28.476-27.125a1.923,1.923,0,0,0-1.921,1.921V241a1.923,1.923,0,0,0,1.921,1.921h28.476A1.923,1.923,0,0,0,132.044,241v-21.53a1.923,1.923,0,0,0-1.921-1.921Z" transform="translate(-97.973 -215.8)"/>
      </g>
    </g>
  </g>
</svg>
