<svg xmlns="http://www.w3.org/2000/svg" width="14.597" height="16.027" viewBox="0 0 14.597 16.027">
  <defs>
    <style>
      .cls-1 {
        fill: #fff;
        stroke: #fff;
        stroke-width: 0.3px;
      }
    </style>
  </defs>
  <g id="_01" data-name="01" transform="translate(0.15 0.15)">
    <path id="Path_11894" data-name="Path 11894" class="cls-1" d="M16.723,5H13.148a3.574,3.574,0,0,0-3.5,2.86H9.574A3.574,3.574,0,0,0,6,11.434v5.719a3.574,3.574,0,0,0,3.574,3.574h3.574a3.574,3.574,0,0,0,3.5-2.86h.071A3.574,3.574,0,0,0,20.3,14.293V8.574A3.574,3.574,0,0,0,16.723,5Zm-1.43,12.152A2.145,2.145,0,0,1,13.148,19.3H9.574A2.145,2.145,0,0,1,7.43,17.152V11.434A2.145,2.145,0,0,1,9.574,9.289h3.574a2.145,2.145,0,0,1,2.145,2.145Zm3.574-2.859a2.145,2.145,0,0,1-2.145,2.145v-5a3.574,3.574,0,0,0-3.574-3.574H11.125a2.145,2.145,0,0,1,2.023-1.43h3.574a2.145,2.145,0,0,1,2.145,2.145Z" transform="translate(-6 -5)"/>
  </g>
</svg>
