<svg xmlns="http://www.w3.org/2000/svg" width="19.783" height="16.36" viewBox="0 0 19.783 16.36">
  <defs>
    <style>
      .cls-1 {
        fill: #2b2a35;
        stroke: #2b2a35;
        stroke-width: 0.3px;
      }
    </style>
  </defs>
  <path id="Path_11725" data-name="Path 11725" class="cls-1" d="M5.5,10.764a.5.5,0,0,1,.527-.527h12.9V9.027a.527.527,0,0,1,1.053,0v1.211h4.476a.527.527,0,0,1,0,1.053H19.981v1.158a.527.527,0,0,1-1.053,0V11.291H6.027A.528.528,0,0,1,5.5,10.764Zm18.956,5.213H11.029V14.819a.527.527,0,1,0-1.053,0v1.158H6.027a.527.527,0,0,0,0,1.053H9.976v1.211a.527.527,0,0,0,1.053,0V17.03H24.456a.527.527,0,0,0,0-1.053Zm0,5.792H16.821V20.611a.527.527,0,0,0-1.053,0v1.158H6.027a.527.527,0,1,0,0,1.053h9.741v1.211a.527.527,0,0,0,1.053,0V22.823h7.635a.527.527,0,1,0,0-1.053Z" transform="translate(-5.35 -8.35)"/>
</svg>
