<svg id="Polaris-icon_Major_Mono_Blog" data-name="Polaris-icon/Major/Mono/Blog" xmlns="http://www.w3.org/2000/svg" xmlns:xlink="http://www.w3.org/1999/xlink" width="20" height="20" viewBox="0 0 20 20">
  <defs>
    <style>
      .cls-1 {
        fill: #606d7a;
      }

      .cls-2 {
        clip-path: url(#clip-path);
      }
    </style>
    <clipPath id="clip-path">
      <path id="Icon" class="cls-1" d="M15,20H1a1,1,0,0,1-1-1V1A1,1,0,0,1,1,0H11a1,1,0,0,1,.707.293L13,1.586l.464-.463a3.921,3.921,0,0,1,5.414,0,3.827,3.827,0,0,1,0,5.413L16,9.414V19A1,1,0,0,1,15,20ZM2,2V18H14V11.414l-2.293,2.293a.975.975,0,0,1-.367.227.047.047,0,0,0-.011.007.04.04,0,0,1-.013.008l-6,2A.989.989,0,0,1,5,16a1,1,0,0,1-.95-1.316l2-6a.047.047,0,0,1,.007-.012.04.04,0,0,0,.008-.013.975.975,0,0,1,.227-.367L11.586,3l-1-1Zm5.437,8.852-.856,2.568,2.569-.856ZM13,4.414h0L8.414,9,11,11.586l3.292-3.291L15.586,7,13,4.414Zm3.171-2.4a1.834,1.834,0,0,0-1.293.518L14.414,3,17,5.586l.464-.464a1.811,1.811,0,0,0-1.293-3.1Z"/>
    </clipPath>
  </defs>
  <g id="Group_7" data-name="Group 7" transform="translate(0 0)">
    <path id="Icon-2" data-name="Icon" class="cls-1" d="M15,20H1a1,1,0,0,1-1-1V1A1,1,0,0,1,1,0H11a1,1,0,0,1,.707.293L13,1.586l.464-.463a3.921,3.921,0,0,1,5.414,0,3.827,3.827,0,0,1,0,5.413L16,9.414V19A1,1,0,0,1,15,20ZM2,2V18H14V11.414l-2.293,2.293a.975.975,0,0,1-.367.227.047.047,0,0,0-.011.007.04.04,0,0,1-.013.008l-6,2A.989.989,0,0,1,5,16a1,1,0,0,1-.95-1.316l2-6a.047.047,0,0,1,.007-.012.04.04,0,0,0,.008-.013.975.975,0,0,1,.227-.367L11.586,3l-1-1Zm5.437,8.852-.856,2.568,2.569-.856ZM13,4.414h0L8.414,9,11,11.586l3.292-3.291L15.586,7,13,4.414Zm3.171-2.4a1.834,1.834,0,0,0-1.293.518L14.414,3,17,5.586l.464-.464a1.811,1.811,0,0,0-1.293-3.1Z"/>
  </g>
</svg>
