<svg id="Layer_2" data-name="Layer 2" xmlns="http://www.w3.org/2000/svg" width="12" height="11.969" viewBox="0 0 12 11.969">
  <defs>
    <style>
      .cls-1 {
        fill: #2b2a35;
      }
    </style>
  </defs>
  <g id="Layer_1" data-name="Layer 1">
    <path id="Path_11958" data-name="Path 11958" class="cls-1" d="M11.839,2.63,9.306.132a.438.438,0,0,0-.622,0L6.878,1.937h0L1.312,7.5a.429.429,0,0,0-.1.158h0L0,11.395a.447.447,0,0,0,.114.447.438.438,0,0,0,.307.123.342.342,0,0,0,.131,0l3.743-1.2h0a.482.482,0,0,0,.167-.105L11.83,3.287a.447.447,0,0,0,.009-.657ZM4.152,9.72,2.241,7.81,7.193,2.866,9.1,4.777ZM1.82,8.625l1.516,1.516-2.226.71Zm7.888-4.47-1.9-1.911L9,1.061,10.91,2.972Z" transform="translate(0.022 -0.002)"/>
  </g>
</svg>
