<svg xmlns="http://www.w3.org/2000/svg" width="16.055" height="16.055" viewBox="0 0 16.055 16.055">
  <defs>
    <style>
      .cls-1, .cls-2 {
        fill: #32325d;
      }

      .cls-1 {
        opacity: 0.4;
      }
    </style>
  </defs>
  <g id="Group_11524" data-name="Group 11524" transform="translate(0)">
    <path id="Path_699" data-name="Path 699" class="cls-1" d="M283.268,407.953h-5.079a.913.913,0,0,0,0,1.826h5.079a.913.913,0,0,0,0-1.826Z" transform="translate(-268.112 -393.724)"/>
    <path id="Path_700" data-name="Path 700" class="cls-2" d="M273.519,395.9l4.813,3.889a.277.277,0,0,1,.045.383l-5.706,7.434a1.874,1.874,0,0,1-1.454.729l-3.115.038a.356.356,0,0,1-.35-.278l-.707-3.077a1.905,1.905,0,0,1,.359-1.6l5.734-7.471A.266.266,0,0,1,273.519,395.9Z" transform="translate(-267 -392.415)"/>
    <path id="Path_701" data-name="Path 701" class="cls-1" d="M281.367,397.053l-.929,1.159a.265.265,0,0,1-.377.043c-1.128-.912-4.016-3.255-4.817-3.9a.276.276,0,0,1-.039-.385l.9-1.111a2.294,2.294,0,0,1,3.37-.23l1.311,1.045a2.728,2.728,0,0,1,1.019,1.563A2.145,2.145,0,0,1,281.367,397.053Z" transform="translate(-267.88 -392)"/>
  </g>
</svg>
