<svg id="graph-2036138" xmlns="http://www.w3.org/2000/svg" width="16" height="16" viewBox="0 0 16 16">
  <defs>
    <style>
      .cls-1, .cls-2 {
        fill: #32325d;
      }

      .cls-2 {
        opacity: 0.4;
      }
    </style>
  </defs>
  <path id="Path_11718" data-name="Path 11718" class="cls-1" d="M6.517,3.426a.847.847,0,0,1,.08.263L6.819,7h0l.11,1.663a1.709,1.709,0,0,0,.08.5.833.833,0,0,0,.8.5l5.321-.348a.878.878,0,0,1,.619.24.847.847,0,0,1,.255.487l.009.112a6.939,6.939,0,0,1-5.5,6.248A7.079,7.079,0,0,1,.848,13a6.564,6.564,0,0,1-.8-2.514A4.809,4.809,0,0,1,0,9.7,6.95,6.95,0,0,1,5.583,2.922.872.872,0,0,1,6.517,3.426Z" transform="translate(0 -0.568)"/>
  <path id="Path_11719" data-name="Path 11719" class="cls-2" d="M10.7,0a7.6,7.6,0,0,1,7.349,6.288l-.006.026h0l-.016.038,0,.1a.644.644,0,0,1-.154.38.666.666,0,0,1-.372.218l-.088.012-6.183.4a.738.738,0,0,1-.563-.182.711.711,0,0,1-.232-.432L10.026.68a.1.1,0,0,1,0-.064.632.632,0,0,1,.208-.447A.656.656,0,0,1,10.7,0Z" transform="translate(-2.054 0)"/>
</svg>
