<svg xmlns="http://www.w3.org/2000/svg" width="21" height="17" viewBox="0 0 21 17">
  <defs>
    <style>
      .cls-1 {
        fill: #fff;
      }

      .cls-2, .cls-3 {
        stroke: none;
      }

      .cls-3 {
        fill: #2b2a35;
      }
    </style>
  </defs>
  <g id="Union_2" data-name="Union 2" class="cls-1">
    <path class="cls-2" d="M 18.99990081787109 16.50010108947754 L 14.00040054321289 16.50010108947754 C 13.17341041564941 16.50010108947754 12.50059986114502 15.82689094543457 12.50059986114502 14.99940013885498 L 12.50059986114502 11.99970054626465 C 12.50059986114502 11.17271041870117 13.17341041564941 10.49990081787109 14.00040054321289 10.49990081787109 L 18.99990081787109 10.49990081787109 C 19.82689094543457 10.49990081787109 20.49970054626465 11.17271041870117 20.49970054626465 11.99970054626465 L 20.49970054626465 14.99940013885498 C 20.49970054626465 15.82689094543457 19.82689094543457 16.50010108947754 18.99990081787109 16.50010108947754 Z M 7.000200271606445 16.50010108947754 L 2.000700235366821 16.50010108947754 C 1.173210263252258 16.50010108947754 0.5000002980232239 15.82689094543457 0.5000002980232239 14.99940013885498 L 0.5000002980232239 11.99970054626465 C 0.5000002980232239 11.17271041870117 1.173210263252258 10.49990081787109 2.000700235366821 10.49990081787109 L 7.000200271606445 10.49990081787109 C 7.827190399169922 10.49990081787109 8.5 11.17271041870117 8.5 11.99970054626465 L 8.5 14.99940013885498 C 8.5 15.82689094543457 7.827190399169922 16.50010108947754 7.000200271606445 16.50010108947754 Z M 18.99990081787109 6.500200748443604 L 14.00040054321289 6.500200748443604 C 13.17341041564941 6.500200748443604 12.50059986114502 5.826990604400635 12.50059986114502 4.999500751495361 L 12.50059986114502 1.999800562858582 C 12.50059986114502 1.172810554504395 13.17341041564941 0.500000536441803 14.00040054321289 0.500000536441803 L 18.99990081787109 0.500000536441803 C 19.82689094543457 0.500000536441803 20.49970054626465 1.172810554504395 20.49970054626465 1.999800562858582 L 20.49970054626465 4.999500751495361 C 20.49970054626465 5.826990604400635 19.82689094543457 6.500200748443604 18.99990081787109 6.500200748443604 Z M 7.000200271606445 6.500200748443604 L 2.000700235366821 6.500200748443604 C 1.173210263252258 6.500200748443604 0.5000002980232239 5.826990604400635 0.5000002980232239 4.999500751495361 L 0.5000002980232239 1.999800562858582 C 0.5000002980232239 1.172810554504395 1.173210263252258 0.500000536441803 2.000700235366821 0.500000536441803 L 7.000200271606445 0.500000536441803 C 7.827190399169922 0.500000536441803 8.5 1.172810554504395 8.5 1.999800562858582 L 8.5 4.999500751495361 C 8.5 5.826990604400635 7.827190399169922 6.500200748443604 7.000200271606445 6.500200748443604 Z"/>
    <path class="cls-3" d="M 18.99990081787109 16.00010108947754 C 19.55118942260742 16.00010108947754 19.99970054626465 15.55119037628174 19.99970054626465 14.99940013885498 L 19.99970054626465 11.99970054626465 C 19.99970054626465 11.448410987854 19.55118942260742 10.99990081787109 18.99990081787109 10.99990081787109 L 14.00040054321289 10.99990081787109 C 13.44911003112793 10.99990081787109 13.00059986114502 11.448410987854 13.00059986114502 11.99970054626465 L 13.00059986114502 14.99940013885498 C 13.00059986114502 15.55119037628174 13.44911003112793 16.00010108947754 14.00040054321289 16.00010108947754 L 18.99990081787109 16.00010108947754 M 7.000200271606445 16.00010108947754 C 7.551490306854248 16.00010108947754 8 15.55119037628174 8 14.99940013885498 L 8 11.99970054626465 C 8 11.448410987854 7.551490306854248 10.99990081787109 7.000200271606445 10.99990081787109 L 2.000700235366821 10.99990081787109 C 1.448910236358643 10.99990081787109 1.000000238418579 11.448410987854 1.000000238418579 11.99970054626465 L 1.000000238418579 14.99940013885498 C 1.000000238418579 15.55119037628174 1.448910236358643 16.00010108947754 2.000700235366821 16.00010108947754 L 7.000200271606445 16.00010108947754 M 18.99990081787109 6.000200748443604 C 19.55118942260742 6.000200748443604 19.99970054626465 5.551290512084961 19.99970054626465 4.999500751495361 L 19.99970054626465 1.999800562858582 C 19.99970054626465 1.448510527610779 19.55118942260742 1.000000596046448 18.99990081787109 1.000000596046448 L 14.00040054321289 1.000000596046448 C 13.44911003112793 1.000000596046448 13.00059986114502 1.448510527610779 13.00059986114502 1.999800562858582 L 13.00059986114502 4.999500751495361 C 13.00059986114502 5.551290512084961 13.44911003112793 6.000200748443604 14.00040054321289 6.000200748443604 L 18.99990081787109 6.000200748443604 M 7.000200271606445 6.000200748443604 C 7.551490306854248 6.000200748443604 8 5.551290512084961 8 4.999500751495361 L 8 1.999800562858582 C 8 1.448510527610779 7.551490306854248 1.000000596046448 7.000200271606445 1.000000596046448 L 2.000700235366821 1.000000596046448 C 1.448910236358643 1.000000596046448 1.000000238418579 1.448510527610779 1.000000238418579 1.999800562858582 L 1.000000238418579 4.999500751495361 C 1.000000238418579 5.551290512084961 1.448910236358643 6.000200748443604 2.000700235366821 6.000200748443604 L 7.000200271606445 6.000200748443604 M 18.99990081787109 17.00010108947754 L 14.00040054321289 17.00010108947754 C 12.89520072937012 17.00010108947754 12.00059986114502 16.10460090637207 12.00059986114502 14.99940013885498 L 12.00059986114502 11.99970054626465 C 12.00059986114502 10.89540100097656 12.89520072937012 9.999900817871094 14.00040054321289 9.999900817871094 L 18.99990081787109 9.999900817871094 C 20.10420036315918 9.999900817871094 20.99970054626465 10.89540100097656 20.99970054626465 11.99970054626465 L 20.99970054626465 14.99940013885498 C 20.99970054626465 16.10460090637207 20.10420036315918 17.00010108947754 18.99990081787109 17.00010108947754 Z M 7.000200271606445 17.00010108947754 L 2.000700235366821 17.00010108947754 C 0.8955003023147583 17.00010108947754 2.731323149873788e-07 16.10460090637207 2.731323149873788e-07 14.99940013885498 L 2.731323149873788e-07 11.99970054626465 C 2.731323149873788e-07 10.89540100097656 0.8955003023147583 9.999900817871094 2.000700235366821 9.999900817871094 L 7.000200271606445 9.999900817871094 C 8.104499816894531 9.999900817871094 9 10.89540100097656 9 11.99970054626465 L 9 14.99940013885498 C 9 16.10460090637207 8.104499816894531 17.00010108947754 7.000200271606445 17.00010108947754 Z M 18.99990081787109 7.000200748443604 L 14.00040054321289 7.000200748443604 C 12.89520072937012 7.000200748443604 12.00059986114502 6.104700565338135 12.00059986114502 4.999500751495361 L 12.00059986114502 1.999800562858582 C 12.00059986114502 0.8955005407333374 12.89520072937012 5.447387820822769e-07 14.00040054321289 5.447387820822769e-07 L 18.99990081787109 5.447387820822769e-07 C 20.10420036315918 5.447387820822769e-07 20.99970054626465 0.8955005407333374 20.99970054626465 1.999800562858582 L 20.99970054626465 4.999500751495361 C 20.99970054626465 6.104700565338135 20.10420036315918 7.000200748443604 18.99990081787109 7.000200748443604 Z M 7.000200271606445 7.000200748443604 L 2.000700235366821 7.000200748443604 C 0.8955003023147583 7.000200748443604 2.731323149873788e-07 6.104700565338135 2.731323149873788e-07 4.999500751495361 L 2.731323149873788e-07 1.999800562858582 C 2.731323149873788e-07 0.8955005407333374 0.8955003023147583 5.447387820822769e-07 2.000700235366821 5.447387820822769e-07 L 7.000200271606445 5.447387820822769e-07 C 8.104499816894531 5.447387820822769e-07 9 0.8955005407333374 9 1.999800562858582 L 9 4.999500751495361 C 9 6.104700565338135 8.104499816894531 7.000200748443604 7.000200271606445 7.000200748443604 Z"/>
  </g>
</svg>
