<svg id="Group_11077" data-name="Group 11077" xmlns="http://www.w3.org/2000/svg" width="25.728" height="51.307" viewBox="0 0 25.728 51.307">
  <defs>
    <style>
      .cls-1 {
        fill: #919eab;
      }
    </style>
  </defs>
  <path id="Path_11585" data-name="Path 11585" class="cls-1" d="M144.793-261.518a10.231,10.231,0,0,0,7.763,8.985,12.241,12.241,0,0,0,2.661.318,5.273,5.273,0,0,1,4.931,5.191,5.321,5.321,0,0,1-5.253,5.08,20.535,20.535,0,0,1-20.005-16.377,16.051,16.051,0,0,1-.382-3.514c-.089-1.559-.016-3.118-.044-4.742.435.1.494.408.6.672a4.782,4.782,0,0,0,3.6,3.068,6.909,6.909,0,0,0,1.52.069c1.221.008,2.441-.005,3.662.006.863.008.9.051.913.884A.814.814,0,0,0,144.793-261.518Z" transform="translate(-134.421 293.249)"/>
  <path id="Path_11586" data-name="Path 11586" class="cls-1" d="M144.736-292.253c-.294-.978-.294-.978-1.4-.978h-3.789a4.96,4.96,0,0,1-4.887-3.524.533.533,0,0,0-.215-.314v4.5a1.106,1.106,0,0,1-.072-.656q0-12.668,0-25.337a1.076,1.076,0,0,1,.077-.655c.286.152.282.432.279.692-.02,1.765.107,3.532-.072,5.294a3.925,3.925,0,0,0,.119.962,14.6,14.6,0,0,0-.007,2.09,6.683,6.683,0,0,0-.031,2.059c0,2.241-.01,4.482.005,6.722,0,.514-.121,1.008-.156,1.441a3.749,3.749,0,0,1,1.674-2.679,5.786,5.786,0,0,1,3.6-1.138c1.1-.04,2.2-.01,3.3-.012,1.192,0,1.191,0,1.2-1.168a2.392,2.392,0,0,1,.144-1.08.472.472,0,0,1,.269-.217,2.765,2.765,0,0,1,1.02-.109c1.275,0,2.55-.012,3.825.008.293,0,.624-.047.806.29a4.523,4.523,0,0,1-1.507.089c-1.24.015-2.481.02-3.721,0-.376-.007-.5.1-.478.476a12.419,12.419,0,0,1,0,1.524c-.023.38.105.481.479.475,1.444-.022,2.888-.012,4.332-.006a2,2,0,0,1,.9.091c-.181.343-.516.284-.811.289-1.224.021-2.448,0-3.672.012-.809.007-.91.106-.913.928-.009,2.652,0,5.3-.006,7.955a1.26,1.26,0,0,1-.262,1.032Z" transform="translate(-134.364 323.985)"/>
  <path id="Path_11587" data-name="Path 11587" class="cls-1" d="M134.689-310.249q0-1.1,0-2.191a4.739,4.739,0,0,1,4.82-4.249c1.4-.011,2.81,0,4.215-.005.762,0,.821-.072.831-.85.006-.448-.007-.9.01-1.344.01-.244.007-.5.276-.63a14.5,14.5,0,0,1,.077,2.339c.013.241.024.482.036.724a1,1,0,0,1,.26.786q.014,4.309,0,8.619a.9.9,0,0,1-.258.781l-.15.152a.714.714,0,0,1-.6.233,50.535,50.535,0,0,1-5.23-.109A4.722,4.722,0,0,1,134.689-310.249Z" transform="translate(-134.553 324.16)"/>
  <path id="Path_11588" data-name="Path 11588" class="cls-1" d="M159.359-301.985q0-5.093,0-10.187c1.731,0,3.461-.021,5.192,0a5.087,5.087,0,0,1,5,4.927,5.067,5.067,0,0,1-4.525,5.29Z" transform="translate(-148.956 319.877)"/>
  <path id="Path_11589" data-name="Path 11589" class="cls-1" d="M159.333-271.035c0-3.2,0-6.4-.017-9.6,0-.459.164-.6.608-.595,1.691.01,3.382-.011,5.073-.02a5.07,5.07,0,0,1,4.524,5.292,5.08,5.08,0,0,1-4.935,4.923C162.836-271.006,161.085-271.034,159.333-271.035Z" transform="translate(-148.932 301.817)"/>
  <path id="Path_11590" data-name="Path 11590" class="cls-1" d="M144.779-326.031c-.011.836-.045,1.672-.024,2.506.011.462-.163.6-.607.593-1.488-.02-2.98.048-4.466-.02a5.114,5.114,0,0,0-4.946,3.723,2.592,2.592,0,0,1-.109.278q-.022-3.477-.044-6.954a5.115,5.115,0,0,1,4.825-4.761A5.1,5.1,0,0,1,144.779-326.031Z" transform="translate(-134.491 330.673)"/>
  <path id="Path_11591" data-name="Path 11591" class="cls-1" d="M134.69-297.244a5.6,5.6,0,0,0,2.391,3.328,5.965,5.965,0,0,0,3.03.768c1.564.049,3.131.027,4.7.037,0,.632-.014,1.264.008,1.9.013.4-.141.541-.536.536-1.223-.016-2.446-.013-3.669,0a6.426,6.426,0,0,0-3.782.947,5.823,5.823,0,0,0-2.137,3Z" transform="translate(-134.553 311.155)"/>
</svg>
