<svg id="document-2036141" xmlns="http://www.w3.org/2000/svg" width="15.9" height="17.667" viewBox="0 0 15.9 17.667">
  <defs>
    <style>
      .cls-1, .cls-2 {
        fill: #ff0956;
      }

      .cls-1 {
        opacity: 0.2;
      }
    </style>
  </defs>
  <path id="Path_11969" data-name="Path 11969" class="cls-1" d="M11.652,0h-7.4A3.89,3.89,0,0,0,0,4.267v9.125c0,2.738,1.564,4.275,4.249,4.275h7.4c2.729,0,4.248-1.537,4.248-4.275V4.267C15.9,1.572,14.381,0,11.652,0"/>
  <path id="Path_11970" data-name="Path 11970" class="cls-2" d="M4.921,12.095h6.408a.647.647,0,0,1,0,1.286H4.921a.635.635,0,0,1-.613-.295.652.652,0,0,1,0-.688A.641.641,0,0,1,4.921,12.095Zm6.408-3.735a.639.639,0,0,1,0,1.278H4.921a.639.639,0,0,1,0-1.278ZM7.364,4.65a.643.643,0,0,1,0,1.286H4.921a.639.639,0,0,1,0-1.278V4.65Z" transform="translate(-0.181 -0.2)"/>
</svg>
