<svg xmlns="http://www.w3.org/2000/svg" width="14.93" height="14" viewBox="0 0 14.93 14">
  <defs>
    <style>
      .cls-1 {
        fill: #fff;
      }
    </style>
  </defs>
  <path id="Union_33" data-name="Union 33" class="cls-1" d="M11.4,13.918l-1.395-.93a.471.471,0,0,1-.219-.383.436.436,0,0,1,.219-.383l1.395-.957a.522.522,0,0,1,.492,0,.424.424,0,0,1,.246.41v.41A2.351,2.351,0,0,0,14,9.789a.465.465,0,0,1,.93,0,3.27,3.27,0,0,1-2.789,3.227v.52a.451.451,0,0,1-.246.41.644.644,0,0,1-.219.055A.462.462,0,0,1,11.4,13.918ZM1.395,11.211A1.406,1.406,0,0,1,0,9.789V1.395A1.4,1.4,0,0,1,1.395,0H13.535A1.4,1.4,0,0,1,14.93,1.395V5.141a.469.469,0,0,1-.848.273A.462.462,0,0,1,14,5.141V4.676H.93V9.789a.461.461,0,0,0,.465.465H7a.467.467,0,0,1,.355.191.392.392,0,0,1,.109.273A.485.485,0,0,1,7,11.211ZM.93,1.395v.93H14v-.93A.461.461,0,0,0,13.535.93H1.395A.479.479,0,0,0,.93,1.395ZM8.395,9.789a3.335,3.335,0,0,1,2.789-3.227V6.07a.485.485,0,0,1,.766-.383l.93.629.438.3a.444.444,0,0,1,0,.766l-1.367.93a.611.611,0,0,1-.273.082.8.8,0,0,1-.246-.055.508.508,0,0,1-.246-.41V7.52a2.339,2.339,0,0,0-1.859,2.27.439.439,0,0,1-.437.465A.468.468,0,0,1,8.395,9.789Z"/>
</svg>
