<svg xmlns="http://www.w3.org/2000/svg" width="44" height="44" viewBox="0 0 44 44">
  <defs>
    <style>
      .cls-1 {
        opacity: 0.51;
      }

      .cls-2 {
        fill: #919eab;
      }
    </style>
  </defs>
  <g id="Polaris-icon_Major_Mono_Analytics" data-name="Polaris-icon/Major/Mono/Analytics" class="cls-1">
    <path id="Shape" class="cls-2" d="M41.8,44H2.2a2.2,2.2,0,1,1,0-4.4H41.8a2.2,2.2,0,0,1,0,4.4Zm0-8.8H2.2A2.2,2.2,0,0,1,0,33V19.8a2.2,2.2,0,0,1,2.2-2.2h11V11a2.2,2.2,0,0,1,2.2-2.2h11V2.2A2.2,2.2,0,0,1,28.6,0H41.8A2.2,2.2,0,0,1,44,2.2V33A2.2,2.2,0,0,1,41.8,35.2ZM30.8,4.4V30.8h8.8V4.4ZM17.6,13.2V30.8h8.8V13.2ZM4.4,22v8.8h8.8V22Z"/>
  </g>
</svg>
