<svg xmlns="http://www.w3.org/2000/svg" width="16" height="16.842" viewBox="0 0 16 16.842">
  <defs>
    <style>
      .cls-1, .cls-2 {
        fill: #32325d;
      }

      .cls-1 {
        opacity: 0.4;
      }
    </style>
  </defs>
  <g id="Group_11464" data-name="Group 11464" transform="translate(-43 -691)">
    <path id="Path_11715" data-name="Path 11715" class="cls-1" d="M15.14,9.866h0a1.645,1.645,0,0,1-.622-2.246,1.669,1.669,0,0,1,.622-.614h0a1.676,1.676,0,0,0,.8-1.014,1.631,1.631,0,0,0-.171-1.269h0l-.561-.981a1.708,1.708,0,0,0-1.041-.781,1.754,1.754,0,0,0-1.3.167h0a1.762,1.762,0,0,1-1.306.168,1.716,1.716,0,0,1-1.045-.781,1.681,1.681,0,0,1-.231-.838h0a1.647,1.647,0,0,0-.5-1.185A1.737,1.737,0,0,0,8.569,0H7.439A1.7,1.7,0,0,0,5.717,1.669a1.661,1.661,0,0,1-.855,1.453,1.754,1.754,0,0,1-1.72,0h0a1.754,1.754,0,0,0-1.322-.178,1.708,1.708,0,0,0-1.053.8h0L.23,4.686A1.653,1.653,0,0,0,.86,6.969h0a1.653,1.653,0,0,1,.623,2.291,1.593,1.593,0,0,1-.623.606h0a1.676,1.676,0,0,0-.8,1.014A1.631,1.631,0,0,0,.23,12.149h0l.538.958a1.747,1.747,0,0,0,2.352.606h0a1.755,1.755,0,0,1,2.344.614,1.621,1.621,0,0,1,.231.838h0a1.655,1.655,0,0,0,.51,1.191,1.746,1.746,0,0,0,1.227.486h1.13a1.7,1.7,0,0,0,1.722-1.677h0a1.647,1.647,0,0,1,.494-1.195,1.737,1.737,0,0,1,1.22-.5,1.718,1.718,0,0,1,.861.225h0a1.747,1.747,0,0,0,2.344-.614l.569-.958A1.646,1.646,0,0,0,15.14,9.866Z" transform="translate(43 691)"/>
    <circle id="Ellipse_2428" data-name="Ellipse 2428" class="cls-2" cx="2.118" cy="2.118" r="2.118" transform="translate(48.882 697.303)"/>
  </g>
</svg>
