<svg id="wallet-2036126" xmlns="http://www.w3.org/2000/svg" width="16" height="14.4" viewBox="0 0 16 14.4">
  <defs>
    <style>
      .cls-1, .cls-2 {
        fill: #32325d;
      }

      .cls-2 {
        opacity: 0.4;
      }
    </style>
  </defs>
  <path id="Path_11681" data-name="Path 11681" class="cls-1" d="M11.611,0C14.368,0,16,1.583,16,4.27h0V4.3H12.609A2.827,2.827,0,0,0,9.753,7.085a2.825,2.825,0,0,0,2.857,2.793H16v.245c0,2.687-1.629,4.277-4.386,4.277H4.387C1.629,14.4,0,12.811,0,10.123H0V4.27C0,1.583,1.629,0,4.387,0h7.224Zm-3.3,3.1H3.792a.6.6,0,1,0,0,1.194H8.312A.6.6,0,1,0,8.306,3.1Z" transform="translate(0 0)"/>
  <path id="Path_11682" data-name="Path 11682" class="cls-2" d="M14.03,8.849a1.641,1.641,0,0,0,1.623,1.3H18.3a.59.59,0,0,0,.583-.6V7.5a.592.592,0,0,0-.583-.6H15.591A1.614,1.614,0,0,0,14,8.535a1.655,1.655,0,0,0,.03.314" transform="translate(-2.879 -1.406)"/>
  <circle id="Ellipse_2424" data-name="Ellipse 2424" class="cls-1" cx="0.813" cy="0.813" r="0.813" transform="translate(11.934 6.307)"/>
</svg>
