<?xml version="1.0" standalone="no"?>
<!DOCTYPE svg PUBLIC "-//W3C//DTD SVG 20010904//EN"
 "http://www.w3.org/TR/2001/REC-SVG-20010904/DTD/svg10.dtd">
<svg version="1.0" xmlns="http://www.w3.org/2000/svg"
 width="976.000000pt" height="976.000000pt" viewBox="0 0 976.000000 976.000000"
 preserveAspectRatio="xMidYMid meet">
<metadata>
Created by potrace 1.14, written by Peter Selinger 2001-2017
</metadata>
<g transform="translate(0.000000,976.000000) scale(0.100000,-0.100000)"
fill="#000000" stroke="none">
<path d="M3528 8955 c-2 -2 -21 -5 -43 -9 -65 -9 -195 -55 -215 -76 -3 -3 -25
-18 -50 -34 -58 -38 -137 -117 -181 -181 -18 -27 -34 -52 -34 -55 -1 -3 -11
-25 -23 -50 -13 -25 -27 -63 -33 -85 -5 -22 -12 -49 -16 -60 -3 -11 -7 -148
-9 -305 -3 -157 -5 -289 -5 -295 -1 -5 1 -22 4 -37 3 -16 2 -28 -3 -28 -5 0
-5 -12 -1 -27 4 -16 6 -44 5 -63 -2 -19 -3 -53 -3 -75 -1 -39 -2 -69 -3 -90 0
-5 2 -22 5 -37 3 -16 2 -28 -3 -28 -5 0 -5 -12 -1 -27 7 -31 6 -176 -3 -198
-3 -8 -2 -16 2 -19 9 -5 8 -73 0 -82 -4 -3 -4 -13 -1 -21 9 -24 9 -843 0 -843
-5 0 -5 -5 -2 -11 4 -6 8 -371 10 -812 2 -441 6 -818 9 -837 3 -19 8 -60 12
-90 7 -62 9 -75 23 -143 6 -27 10 -51 9 -55 -1 -4 2 -14 5 -22 4 -8 8 -26 10
-40 2 -14 6 -32 9 -40 5 -13 50 -174 54 -190 0 -3 3 -12 7 -20 3 -8 7 -24 9
-35 2 -11 5 -22 8 -25 13 -12 59 -144 53 -153 -3 -6 -1 -7 5 -3 11 6 17 -12
13 -36 0 -5 2 -8 7 -8 4 0 13 -15 20 -32 7 -18 18 -40 23 -48 9 -15 31 -61 34
-70 0 -3 11 -20 22 -39 12 -19 20 -38 17 -43 -3 -4 0 -8 6 -8 6 0 15 -10 20
-22 6 -13 24 -43 40 -68 16 -25 35 -56 42 -70 7 -14 19 -32 26 -40 37 -42 62
-76 62 -84 0 -5 8 -16 18 -25 10 -9 29 -32 42 -51 26 -37 27 -37 108 -123 28
-31 52 -60 52 -66 0 -6 4 -11 10 -11 5 0 48 -38 95 -84 47 -46 85 -81 85 -77
1 3 8 -3 18 -14 9 -11 38 -36 64 -54 26 -19 45 -38 41 -44 -3 -6 -1 -7 4 -4 6
4 22 -3 37 -14 50 -39 186 -129 196 -129 6 0 10 -4 10 -8 0 -5 16 -14 35 -22
19 -7 32 -17 29 -22 -3 -5 -2 -7 3 -6 12 4 73 -26 73 -35 0 -5 4 -6 9 -3 5 3
14 -1 21 -9 7 -8 20 -15 29 -15 9 0 23 -6 30 -13 6 -6 15 -12 19 -12 4 0 36
-13 72 -30 36 -16 67 -30 70 -30 5 -2 34 -12 65 -25 61 -24 105 -39 145 -51
25 -7 50 -15 55 -18 6 -3 12 -6 15 -7 50 -9 87 -18 95 -22 5 -3 19 -7 30 -9
35 -5 60 -10 63 -13 3 -3 9 -5 63 -13 25 -4 59 -10 75 -13 58 -11 196 -24 289
-28 28 -1 55 -5 62 -9 6 -4 15 -3 18 3 5 8 11 8 19 1 7 -6 16 -8 19 -4 4 3 33
7 64 9 152 8 320 80 424 183 32 32 61 55 64 53 3 -3 5 1 5 8 0 7 7 22 17 32
20 22 36 49 64 108 12 25 25 47 28 50 3 3 7 14 9 25 3 22 10 50 12 50 3 0 10
41 12 68 0 15 4 29 7 31 7 5 4 138 -5 186 -9 50 -12 65 -14 65 -1 0 -4 11 -6
25 -7 36 -58 142 -95 197 -37 54 -124 143 -140 143 -5 0 -7 5 -4 10 3 6 2 10
-3 10 -6 0 -39 17 -73 38 -35 22 -77 42 -94 46 -16 4 -45 15 -63 23 -18 9 -35
13 -38 10 -4 -3 -17 -1 -31 4 -14 5 -90 11 -169 13 -79 3 -147 7 -152 10 -4 2
-28 7 -52 11 -49 7 -116 22 -140 32 -8 4 -17 7 -20 8 -95 24 -326 142 -378
192 -7 7 -17 13 -21 13 -5 0 -27 17 -50 39 -22 21 -41 36 -41 32 0 -11 -171
172 -178 191 -2 4 -16 21 -33 39 -16 17 -29 37 -29 44 0 7 -4 15 -8 17 -4 2
-21 26 -38 53 -80 133 -155 348 -169 485 -2 19 -5 35 -5 35 -4 0 -13 116 -11
150 1 20 8 20 399 20 354 0 404 2 462 18 36 10 69 18 74 17 5 -1 12 2 15 7 3
4 31 21 61 37 120 62 224 168 288 290 14 28 27 53 27 56 1 3 4 12 8 20 41 101
51 273 23 395 -29 121 -116 274 -196 341 -74 63 -85 72 -116 91 -50 32 -158
73 -229 89 -16 3 -181 7 -366 9 -185 1 -341 5 -347 9 -7 4 -12 3 -12 -1 0 -6
-58 -9 -90 -4 -4 1 -5 283 -1 328 1 8 95 11 359 12 398 0 446 3 529 32 32 11
63 21 68 22 6 1 28 13 48 25 21 12 41 22 44 22 11 0 89 65 134 111 96 99 165
233 184 359 12 80 7 218 -10 280 -34 122 -91 226 -169 309 -54 57 -166 135
-219 153 -18 6 -34 14 -37 17 -5 6 -62 22 -135 37 -16 3 -203 7 -414 8 l-384
1 -2 235 c-1 156 -6 243 -13 257 -7 12 -12 31 -12 42 0 12 -4 29 -9 39 -5 9
-17 35 -27 57 -77 179 -248 324 -449 381 -49 14 -246 29 -257 19z"/>
</g>
</svg>
