<svg xmlns="http://www.w3.org/2000/svg" width="16" height="17.778" viewBox="0 0 16 17.778">
  <defs>
    <style>
      .cls-1, .cls-2 {
        opacity: 0.4;
      }

      .cls-2, .cls-3 {
        fill: #32325d;
      }
    </style>
  </defs>
  <g id="document-2036141" class="cls-1">
    <path id="Path_11711" data-name="Path 11711" class="cls-2" d="M11.725,0H4.276A3.915,3.915,0,0,0,0,4.293v9.182c0,2.756,1.573,4.3,4.276,4.3h7.45c2.746,0,4.275-1.547,4.275-4.3V4.293C16,1.582,14.471,0,11.725,0" transform="translate(0 0)"/>
    <path id="Path_11712" data-name="Path 11712" class="cls-3" d="M4.979,12.686h6.93a.7.7,0,0,1,0,1.388H4.979a.687.687,0,0,1-.663-.318.7.7,0,0,1,0-.743A.693.693,0,0,1,4.979,12.686Zm6.93-4.032a.69.69,0,0,1,0,1.38H4.979a.69.69,0,0,1,0-1.38Zm-4.288-4a.694.694,0,0,1,0,1.388H4.979a.69.69,0,0,1,0-1.379V4.65Z" transform="translate(-0.445 -0.491)"/>
  </g>
</svg>
