<svg xmlns="http://www.w3.org/2000/svg" width="20.001" height="19.811" viewBox="0 0 20.001 19.811">
  <defs>
    <style>
      .cls-1 {
        fill: #fff;
        opacity: 0.76;
      }
    </style>
  </defs>
  <path id="Union_37" data-name="Union 37" class="cls-1" d="M12.315,19.811l-1.567-5.941.95-1.7c.355.037.711.082,1.057.146,3.191.57,5.717,2.086,6.756,4.053a3.952,3.952,0,0,1,.178,3.446Zm-12,0a4.649,4.649,0,0,1-.2-.593A4.109,4.109,0,0,1,.842,15.8c1.364-1.928,4.146-3.279,7.46-3.635l.954,1.708L7.688,19.811ZM5.106,5.289A5.11,5.11,0,0,1,10,0,5.109,5.109,0,0,1,14.9,5.289,5.109,5.109,0,0,1,10,10.578,5.111,5.111,0,0,1,5.106,5.289Z"/>
</svg>
