<svg id="Group_11310" data-name="Group 11310" xmlns="http://www.w3.org/2000/svg" width="15" height="20.105" viewBox="0 0 15 20.105">
  <defs>
    <style>
      .cls-1, .cls-2 {
        fill: #32325d;
      }

      .cls-1 {
        opacity: 0.4;
      }

      .cls-3 {
        fill: #fff;
      }
    </style>
  </defs>
  <path id="Path_11957" data-name="Path 11957" class="cls-1" d="M671.526-71.617c6.629,7.272,2.733,12.678.276,13.194a4.813,4.813,0,0,1-.5.194l-3.76.426-1.977-.426-2.4-1.392-.852-1.716-.558-3.032,1.147-3.9,1.884-2.482,1.19-.981,1.119.383Z" transform="translate(-661 77)"/>
  <path id="Path_11920" data-name="Path 11920" class="cls-2" d="M25.623,7.321,26.469,4.3a1.32,1.32,0,0,0-.212-1.248,1.434,1.434,0,0,0-1.121-.571,1.364,1.364,0,0,0-.423.063,8.734,8.734,0,0,1-5.2,0,1.4,1.4,0,0,0-1.417.339,1.432,1.432,0,0,0-.381,1.4L18.577,7.3A9.769,9.769,0,0,0,14.6,15.53c0,4.549,2.666,7.045,7.511,7.045,4.824,0,7.489-2.5,7.489-7.045A9.809,9.809,0,0,0,25.623,7.321Zm-.508-3.427L24.29,6.856a7.713,7.713,0,0,1-4.379,0l-.846-2.962A10.176,10.176,0,0,0,25.115,3.894ZM22.089,21.157c-4.041,0-6.093-1.9-6.093-5.628,0-3.131,1.46-5.987,3.681-7.236a8.973,8.973,0,0,0,2.412.317A9.2,9.2,0,0,0,24.5,8.294c2.2,1.248,3.681,4.1,3.681,7.236C28.161,19.253,26.13,21.157,22.089,21.157Z" transform="translate(-14.6 -2.47)"/>
  <path id="Path_11921" data-name="Path 11921" class="cls-3" d="M41.736,43.806h-.644a.709.709,0,0,1-.533-.244.731.731,0,0,1-.178-.555.772.772,0,0,1,.777-.644h.755a.453.453,0,0,1,.444.355.287.287,0,0,0,.289.222h.866a.273.273,0,0,0,.222-.111.268.268,0,0,0,.067-.222,1.889,1.889,0,0,0-1.665-1.687v-.732a.294.294,0,0,0-.289-.289H41a.294.294,0,0,0-.289.289v.755a2.147,2.147,0,0,0-1.753,2.33,2.17,2.17,0,0,0,2.219,1.975h.555a.709.709,0,0,1,.533.244.731.731,0,0,1,.178.555.765.765,0,0,1-.755.644h-.755a.453.453,0,0,1-.444-.355.287.287,0,0,0-.289-.222h-.866a.339.339,0,0,0-.222.089.268.268,0,0,0-.067.222,1.889,1.889,0,0,0,1.664,1.687v.732a.294.294,0,0,0,.289.289h.843a.294.294,0,0,0,.289-.289v-.777a2.187,2.187,0,0,0,1.753-1.886,2.073,2.073,0,0,0-.555-1.664A2.223,2.223,0,0,0,41.736,43.806Z" transform="translate(-33.915 -32.283)"/>
</svg>
