<svg xmlns="http://www.w3.org/2000/svg" width="15.552" height="17.146" viewBox="0 0 15.552 17.146">
  <defs>
    <style>
      .cls-1, .cls-2 {
        fill: none;
        stroke: #ff0956;
        stroke-linecap: round;
        stroke-linejoin: round;
        stroke-width: 1.2px;
      }

      .cls-2 {
        fill-rule: evenodd;
      }
    </style>
  </defs>
  <g id="Group_11591" data-name="Group 11591" transform="translate(-1051.4 -600.122)">
    <path id="Path_1971" data-name="Path 1971" class="cls-1" d="M211.093,286.4H225.3" transform="translate(840.981 320.221)"/>
    <path id="Path_1972" data-name="Path 1972" class="cls-1" d="M224.442,290.31h.007" transform="translate(838.276 319.429)"/>
    <path id="Path_1973" data-name="Path 1973" class="cls-1" d="M220.005,290.31h.007" transform="translate(839.175 319.429)"/>
    <path id="Path_1974" data-name="Path 1974" class="cls-1" d="M215.558,290.31h.007" transform="translate(840.076 319.429)"/>
    <path id="Path_1975" data-name="Path 1975" class="cls-1" d="M224.442,294.2h.007" transform="translate(838.276 318.641)"/>
    <path id="Path_1976" data-name="Path 1976" class="cls-1" d="M220.005,294.2h.007" transform="translate(839.175 318.641)"/>
    <path id="Path_1977" data-name="Path 1977" class="cls-1" d="M215.558,294.2h.007" transform="translate(840.076 318.641)"/>
    <path id="Path_1978" data-name="Path 1978" class="cls-1" d="M224.044,279v2.624" transform="translate(838.356 321.722)"/>
    <path id="Path_1979" data-name="Path 1979" class="cls-1" d="M215.965,279v2.624" transform="translate(839.993 321.722)"/>
    <path id="Path_1980" data-name="Path 1980" class="cls-2" d="M221.555,280.579H214.8c-2.342,0-3.8,1.3-3.8,3.7V291.5a3.463,3.463,0,0,0,3.8,3.77h6.744c2.349,0,3.8-1.312,3.8-3.709v-7.276C225.359,281.883,223.9,280.579,221.555,280.579Z" transform="translate(841 321.402)"/>
  </g>
</svg>
