<svg xmlns="http://www.w3.org/2000/svg" width="14.299" height="14.349" viewBox="0 0 14.299 14.349">
  <defs>
    <style>
      .cls-1 {
        stroke: #fff;
        stroke-width: 0.3px;
      }
    </style>
  </defs>
  <path id="Path_11961" data-name="Path 11961" class="cls-1" d="M31.564,26.306l-1.687-1.688a1.6,1.6,0,0,0-1.162-.527,1.655,1.655,0,0,0-1.172.523l-.879.879-.126-.064a3.166,3.166,0,0,1-.288-.156,10.407,10.407,0,0,1-2.485-2.264,6.2,6.2,0,0,1-.755-1.161c.223-.208.432-.421.631-.625l.257-.258a1.572,1.572,0,0,0,0-2.367l-.838-.838c-.095-.095-.186-.187-.279-.285l0,0c-.183-.189-.38-.388-.577-.571a1.64,1.64,0,0,0-1.157-.5,1.685,1.685,0,0,0-1.168.5l-1.056,1.056a2.381,2.381,0,0,0-.717,1.534,5.417,5.417,0,0,0,.405,2.351,13.3,13.3,0,0,0,2.377,3.97h0a14.655,14.655,0,0,0,4.867,3.813h0a7.717,7.717,0,0,0,2.767.815h.013c.062,0,.126.006.194.006a2.45,2.45,0,0,0,1.9-.815c.009-.01.02-.021.031-.037a6.423,6.423,0,0,1,.476-.493l.04-.038c.162-.154.289-.282.4-.4a1.7,1.7,0,0,0,.516-1.186A1.652,1.652,0,0,0,31.564,26.306ZM19.271,19.592h0a1.239,1.239,0,0,1,.377-.807l1.045-1.045a.522.522,0,0,1,.347-.17.5.5,0,0,1,.333.172l.009.009c.159.147.312.3.473.468l.074.075.147.15.145.147.841.841a.422.422,0,0,1,0,.709l-.132.133-.13.132-.06.06c-.237.24-.462.466-.7.683l-.024.024a.791.791,0,0,0-.2.872c0,.01.006.017.009.026l.006.014a6.891,6.891,0,0,0,1.021,1.663h0a11.5,11.5,0,0,0,2.767,2.52,3.1,3.1,0,0,0,.332.183c.02.01.041.02.061.031h0a3.166,3.166,0,0,1,.288.156l.026.014.026.014a.837.837,0,0,0,.383.1.814.814,0,0,0,.59-.262l1.052-1.052a.528.528,0,0,1,.343-.179.483.483,0,0,1,.32.173l0,0,1.7,1.7a.442.442,0,0,1-.011.72l0,0c-.119.128-.245.249-.364.364l-.034.033a7.842,7.842,0,0,0-.568.592,1.3,1.3,0,0,1-1.025.429c-.04,0-.085,0-.13-.006a6.55,6.55,0,0,1-2.334-.7,13.44,13.44,0,0,1-4.476-3.507,12.293,12.293,0,0,1-2.18-3.627,4.331,4.331,0,0,1-.337-1.851Z" transform="translate(-17.939 -16.25)"/>
</svg>
