<svg xmlns="http://www.w3.org/2000/svg" width="10" height="10" viewBox="0 0 10 10">
  <defs>
    <style>
      .cls-1 {
        fill: #2b2a35;
      }
    </style>
  </defs>
  <g id="Close" transform="translate(-12.4 -12.4)">
    <g id="Group_11150" data-name="Group 11150" transform="translate(12.4 12.4)">
      <path id="Path_11823" data-name="Path 11823" class="cls-1" d="M22.23,21.406,18.2,17.4l4.034-4.006a.549.549,0,0,0,0-.8.575.575,0,0,0-.8,0L17.4,16.6,13.394,12.57a.549.549,0,0,0-.8,0,.575.575,0,0,0,0,.8L16.6,17.4,12.57,21.406a.549.549,0,0,0,0,.8.575.575,0,0,0,.8,0L17.4,18.2l4.006,4.034a.549.549,0,0,0,.8,0A.644.644,0,0,0,22.23,21.406Z" transform="translate(-12.4 -12.4)"/>
    </g>
  </g>
</svg>
