<svg xmlns="http://www.w3.org/2000/svg" width="16.254" height="17.149" viewBox="0 0 16.254 17.149">
  <defs>
    <style>
      .cls-1 {
        fill: #2b2a35;
        stroke: #2b2a35;
        stroke-linecap: round;
        stroke-linejoin: round;
        fill-rule: evenodd;
      }
    </style>
  </defs>
  <path id="home-2036112" class="cls-1" d="M5.345,15.07V12.608a1.145,1.145,0,0,1,1.143-1.139H8.8a1.145,1.145,0,0,1,1.151,1.139h0v2.47a.983.983,0,0,0,.965.979h1.545a2.774,2.774,0,0,0,2.788-2.76h0v-7a1.958,1.958,0,0,0-.772-1.529L9.2.55a2.553,2.553,0,0,0-3.167,0L.772,4.771A1.943,1.943,0,0,0,0,6.3v7a2.774,2.774,0,0,0,2.788,2.76H4.333a.991.991,0,0,0,1-.986h0" transform="translate(0.5 0.592)"/>
</svg>
