<svg xmlns="http://www.w3.org/2000/svg" xmlns:xlink="http://www.w3.org/1999/xlink" width="44" height="44" viewBox="0 0 44 44">
  <defs>
    <style>
      .cls-1 {
        fill: #919eab;
      }

      .cls-2 {
        opacity: 0.51;
      }

      .cls-3 {
        clip-path: url(#clip-path);
      }
    </style>
    <clipPath id="clip-path">
      <path id="Fill_1" data-name="Fill 1" class="cls-1" d="M22,44a2.2,2.2,0,1,1,2.2-2.2A2.2,2.2,0,0,1,22,44Zm8.8-2.081a2.2,2.2,0,0,1-.982-4.168,17.516,17.516,0,0,0,9.662-13.793A2.206,2.206,0,0,1,41.681,22a2.286,2.286,0,0,1,.229.012,2.2,2.2,0,0,1,1.946,2.428A21.887,21.887,0,0,1,31.777,41.687,2.194,2.194,0,0,1,30.8,41.919Zm-17.6,0a2.174,2.174,0,0,1-.978-.232A21.9,21.9,0,0,1,.141,24.441a2.208,2.208,0,0,1,1.946-2.428A2.416,2.416,0,0,1,2.333,22a2.168,2.168,0,0,1,2.184,1.957,17.516,17.516,0,0,0,9.662,13.789,2.2,2.2,0,0,1-.98,4.17ZM22,33A11,11,0,1,1,33,22,11.012,11.012,0,0,1,22,33Zm0-17.6A6.6,6.6,0,1,0,28.6,22,6.607,6.607,0,0,0,22,15.4Zm19.8,2.2a2.2,2.2,0,0,1-2.126-2.772A2.2,2.2,0,0,1,41.8,13.2,2.211,2.211,0,0,1,43.7,14.3a2.2,2.2,0,0,1-1.9,3.3Zm-39.6,0a2.2,2.2,0,1,1,1.909-1.1A2.187,2.187,0,0,1,2.2,17.6ZM9.572,8.8A2.2,2.2,0,0,1,8.188,4.889a21.96,21.96,0,0,1,27.627,0A2.2,2.2,0,0,1,34.428,8.8a2.227,2.227,0,0,1-1.382-.487,17.551,17.551,0,0,0-22.093,0A2.211,2.211,0,0,1,9.572,8.8Z"/>
    </clipPath>
  </defs>
  <g id="Monotone" class="cls-2">
    <g id="Group_95" data-name="Group 95" transform="translate(0)">
      <path id="Fill_1-2" data-name="Fill 1" class="cls-1" d="M22,44a2.2,2.2,0,1,1,2.2-2.2A2.2,2.2,0,0,1,22,44Zm8.8-2.081a2.2,2.2,0,0,1-.982-4.168,17.516,17.516,0,0,0,9.662-13.793A2.206,2.206,0,0,1,41.681,22a2.286,2.286,0,0,1,.229.012,2.2,2.2,0,0,1,1.946,2.428A21.887,21.887,0,0,1,31.777,41.687,2.194,2.194,0,0,1,30.8,41.919Zm-17.6,0a2.174,2.174,0,0,1-.978-.232A21.9,21.9,0,0,1,.141,24.441a2.208,2.208,0,0,1,1.946-2.428A2.416,2.416,0,0,1,2.333,22a2.168,2.168,0,0,1,2.184,1.957,17.516,17.516,0,0,0,9.662,13.789,2.2,2.2,0,0,1-.98,4.17ZM22,33A11,11,0,1,1,33,22,11.012,11.012,0,0,1,22,33Zm0-17.6A6.6,6.6,0,1,0,28.6,22,6.607,6.607,0,0,0,22,15.4Zm19.8,2.2a2.2,2.2,0,0,1-2.126-2.772A2.2,2.2,0,0,1,41.8,13.2,2.211,2.211,0,0,1,43.7,14.3a2.2,2.2,0,0,1-1.9,3.3Zm-39.6,0a2.2,2.2,0,1,1,1.909-1.1A2.187,2.187,0,0,1,2.2,17.6ZM9.572,8.8A2.2,2.2,0,0,1,8.188,4.889a21.96,21.96,0,0,1,27.627,0A2.2,2.2,0,0,1,34.428,8.8a2.227,2.227,0,0,1-1.382-.487,17.551,17.551,0,0,0-22.093,0A2.211,2.211,0,0,1,9.572,8.8Z"/>
    </g>
  </g>
</svg>
