<svg xmlns="http://www.w3.org/2000/svg" width="16.137" height="14.524" viewBox="0 0 16.137 14.524">
  <defs>
    <style>
      .cls-1, .cls-2 {
        fill: #2b2a35;
      }

      .cls-2 {
        opacity: 0.4;
      }
    </style>
  </defs>
  <g id="Group_12109" data-name="Group 12109" transform="translate(-770 -439)">
    <path id="Path_857" data-name="Path 857" class="cls-1" d="M282.137,291.56a4.072,4.072,0,0,1-4.059,4.083h-8A4.072,4.072,0,0,1,266,291.577v-.008s0-3.571.011-5.367a.4.4,0,0,1,.652-.316c1.917,1.521,5.345,4.294,5.388,4.33a3.282,3.282,0,0,0,2.041.718,3.238,3.238,0,0,0,2.041-.727c.043-.028,3.395-2.718,5.341-4.264a.4.4,0,0,1,.654.315C282.137,288.039,282.137,291.56,282.137,291.56Z" transform="translate(504 157.88)"/>
    <path id="Path_858" data-name="Path 858" class="cls-2" d="M281.812,282.158A4.063,4.063,0,0,0,278.224,280h-8.053a4.063,4.063,0,0,0-3.587,2.158.7.7,0,0,0,.178.87l5.991,4.792a2.281,2.281,0,0,0,1.436.508h.016a2.281,2.281,0,0,0,1.436-.508l5.991-4.792A.7.7,0,0,0,281.812,282.158Z" transform="translate(503.903 159)"/>
  </g>
</svg>
