<svg xmlns="http://www.w3.org/2000/svg" xmlns:xlink="http://www.w3.org/1999/xlink" width="43.661" height="43.661" viewBox="0 0 43.661 43.661">
  <defs>
    <style>
      .cls-1 {
        fill: #919eab;
      }

      .cls-2 {
        opacity: 0.51;
      }

      .cls-3 {
        clip-path: url(#clip-path);
      }
    </style>
    <clipPath id="clip-path">
      <path id="Mask" class="cls-1" d="M41.478,43.661H6.549C2.938,43.661,0,40.4,0,36.385V7.276c0-.035,0-.07,0-.107A7.8,7.8,0,0,1,1.558,2.563,6.3,6.3,0,0,1,6.549,0H37.113A2.316,2.316,0,0,1,39.3,2.425V9.7h2.183a2.318,2.318,0,0,1,2.183,2.428V41.236A2.316,2.316,0,0,1,41.478,43.661ZM4.366,14.074V36.385a2.316,2.316,0,0,0,2.183,2.425H39.3V33.96H34.93c-2.633,0-6.551-1.938-6.551-7.278s3.917-7.276,6.551-7.276H39.3V14.555H6.782A6.345,6.345,0,0,1,4.366,14.074ZM34.93,24.256c-1,.029-2.183.473-2.183,2.425a2.108,2.108,0,0,0,2.208,2.425H39.3V24.256ZM6.549,4.851a2.1,2.1,0,0,0-1.662.856,2.62,2.62,0,0,0-.489,2,2.425,2.425,0,0,0,2.385,2H34.93V4.851Z"/>
    </clipPath>
  </defs>
  <g id="Polaris-icon_Major_Mono_Wearable" data-name="Polaris-icon/Major/Mono/Wearable" class="cls-2">
    <g id="Group_3" data-name="Group 3" transform="translate(0)">
      <path id="Mask-2" data-name="Mask" class="cls-1" d="M41.478,43.661H6.549C2.938,43.661,0,40.4,0,36.385V7.276c0-.035,0-.07,0-.107A7.8,7.8,0,0,1,1.558,2.563,6.3,6.3,0,0,1,6.549,0H37.113A2.316,2.316,0,0,1,39.3,2.425V9.7h2.183a2.318,2.318,0,0,1,2.183,2.428V41.236A2.316,2.316,0,0,1,41.478,43.661ZM4.366,14.074V36.385a2.316,2.316,0,0,0,2.183,2.425H39.3V33.96H34.93c-2.633,0-6.551-1.938-6.551-7.278s3.917-7.276,6.551-7.276H39.3V14.555H6.782A6.345,6.345,0,0,1,4.366,14.074ZM34.93,24.256c-1,.029-2.183.473-2.183,2.425a2.108,2.108,0,0,0,2.208,2.425H39.3V24.256ZM6.549,4.851a2.1,2.1,0,0,0-1.662.856,2.62,2.62,0,0,0-.489,2,2.425,2.425,0,0,0,2.385,2H34.93V4.851Z"/>
    </g>
  </g>
</svg>
