<svg id="Group_12112" data-name="Group 12112" xmlns="http://www.w3.org/2000/svg" width="16" height="11.441" viewBox="0 0 16 11.441">
  <defs>
    <style>
      .cls-1 {
        fill: #ff0956;
      }
    </style>
  </defs>
  <path id="Path_12168" data-name="Path 12168" class="cls-1" d="M10.016,6A8.866,8.866,0,0,0,4.392,8.28,9.974,9.974,0,0,0,2.7,10.1a2.849,2.849,0,0,0-.687,1.617A2.763,2.763,0,0,0,2.7,13.307a10.26,10.26,0,0,0,1.687,1.825,8.836,8.836,0,0,0,5.625,2.309,8.867,8.867,0,0,0,5.623-2.279,9.961,9.961,0,0,0,1.689-1.823,2.852,2.852,0,0,0,.687-1.618,2.849,2.849,0,0,0-.687-1.617A9.972,9.972,0,0,0,15.639,8.28,8.866,8.866,0,0,0,10.016,6Zm0,2.288a3.432,3.432,0,1,1-3.432,3.432A3.441,3.441,0,0,1,10.016,8.288Zm0,1.144A2.288,2.288,0,1,0,12.3,11.721,2.28,2.28,0,0,0,10.016,9.432Z" transform="translate(-2.016 -6)"/>
</svg>
