<svg xmlns="http://www.w3.org/2000/svg" width="13.336" height="16.257" viewBox="0 0 13.336 16.257">
  <defs>
    <style>
      .cls-1 {
        fill: #ff0956;
      }

      .cls-2 {
        fill: #d12657;
      }

      .cls-3 {
        fill: #fe6696;
      }

      .cls-4 {
        fill: #a4b0be;
      }
    </style>
  </defs>
  <g id="flag" transform="translate(-46)">
    <path id="Path_12048" data-name="Path 12048" class="cls-1" d="M203.34,94.651l1.2-3A.476.476,0,0,0,204.1,91h-6.033a.476.476,0,0,0-.476.476v4.286h-1.111a.476.476,0,0,0-.476.476v1.588a.476.476,0,0,0,.476.476h7.62a.476.476,0,0,0,.442-.653Z" transform="translate(-145.237 -88.111)"/>
    <path id="Path_12049" data-name="Path 12049" class="cls-2" d="M196.476,243.54a.476.476,0,0,1-.476-.476v-1.588a.476.476,0,0,1,.476-.476h1.588a.476.476,0,0,1,.337.813l-1.588,1.588A.476.476,0,0,1,196.476,243.54Z" transform="translate(-145.237 -233.348)"/>
    <path id="Path_12050" data-name="Path 12050" class="cls-3" d="M52.827,41h-6.35a.476.476,0,0,0-.476.476v6.35a.476.476,0,0,0,.476.476h6.35a.476.476,0,0,0,.476-.476v-6.35A.476.476,0,0,0,52.827,41Z" transform="translate(0 -39.698)"/>
    <path id="Path_12051" data-name="Path 12051" class="cls-4" d="M46.476,16.257A.476.476,0,0,1,46,15.781V.476a.476.476,0,1,1,.953,0v15.3A.476.476,0,0,1,46.476,16.257Z"/>
  </g>
</svg>
