<svg xmlns="http://www.w3.org/2000/svg" width="34.416" height="19.5" viewBox="0 0 34.416 19.5">
  <defs>
    <style>
      .cls-1 {
        fill: #2b2a35;
        stroke: #fff;
        stroke-width: 0.5px;
      }
    </style>
  </defs>
  <path id="Union_10" data-name="Union 10" class="cls-1" d="M32.135,19v-.365a3.291,3.291,0,0,0-3.285-3.291H25.736c-.057,0-.119,0-.176,0a.861.861,0,0,1-.654-.234.888.888,0,0,1,.576-1.535c.082-.006.17-.012.254-.012H28.85a5.075,5.075,0,0,1,5.066,5.068V19Zm-9.746,0V16.813a3.724,3.724,0,0,0-3.719-3.721H15.244a3.724,3.724,0,0,0-3.719,3.721V19H9.75V16.813a5.507,5.507,0,0,1,5.494-5.5H18.67a5.507,5.507,0,0,1,5.5,5.5V19ZM9.746,19h0ZM0,19v-.365a5.072,5.072,0,0,1,5.064-5.068H8.172a4.586,4.586,0,0,1,.471.027.884.884,0,0,1,.787.883.862.862,0,0,1-.281.643.893.893,0,0,1-.7.234c-.09-.006-.182-.01-.277-.01H5.064a3.3,3.3,0,0,0-3.291,3.291V19ZM23.072,8.2a4.224,4.224,0,1,1,4.221,4.221A4.23,4.23,0,0,1,23.072,8.2Zm1.777,0a2.446,2.446,0,1,0,2.443-2.449A2.449,2.449,0,0,0,24.85,8.2ZM2.395,8.2a4.224,4.224,0,1,1,4.227,4.221A4.233,4.233,0,0,1,2.395,8.2Zm1.783,0A2.444,2.444,0,1,0,6.621,5.754,2.447,2.447,0,0,0,4.178,8.2Zm7.469-2.9a5.31,5.31,0,1,1,5.311,5.313A5.313,5.313,0,0,1,11.646,5.3Zm1.775,0a3.533,3.533,0,1,0,3.535-3.531A3.538,3.538,0,0,0,13.422,5.3Z" transform="translate(0.25 0.25)"/>
</svg>
