<svg xmlns="http://www.w3.org/2000/svg" xmlns:xlink="http://www.w3.org/1999/xlink" width="78.867" height="121.79" viewBox="0 0 78.867 121.79">
  <defs>
    <style>
      .cls-1 {
        fill: #32325d;
      }

      .cls-2 {
        fill: #ff0956;
      }

      .cls-3 {
        fill: #86347e;
      }

      .cls-4 {
        filter: url(#Path_11747);
      }
    </style>
    <filter id="Path_11747" x="0" y="0" width="78.867" height="121.79" filterUnits="userSpaceOnUse">
      <feOffset dx="3" dy="8" input="SourceAlpha"/>
      <feGaussianBlur stdDeviation="6" result="blur"/>
      <feFlood flood-opacity="0.071"/>
      <feComposite operator="in" in2="blur"/>
      <feComposite in="SourceGraphic"/>
    </filter>
  </defs>
  <g id="Group_11122" data-name="Group 11122" transform="translate(15 10)">
    <g class="cls-4" transform="matrix(1, 0, 0, 1, -15, -10)">
      <path id="Path_11747-2" data-name="Path 11747" class="cls-1" d="M145.907,308.69a32.892,32.892,0,0,1-12.8-2.629,34.15,34.15,0,0,1-18.575-18.576A34.588,34.588,0,0,1,111.9,274.34V231.473a8.573,8.573,0,1,1,17.147,0V274.34a17.514,17.514,0,0,0,1.315,6.573,17.219,17.219,0,0,0,9.259,9.259,15.415,15.415,0,0,0,6.23,1.315,8.607,8.607,0,1,1,.057,17.2Z" transform="translate(-96.9 -212.9)"/>
    </g>
    <path id="Path_11748" data-name="Path 11748" class="cls-2" d="M150.573,283a8.573,8.573,0,1,1,0,17.147H142V283Z" transform="translate(-124.796 -248.65)"/>
    <path id="Path_11749" data-name="Path 11749" class="cls-3" d="M120.573,283a8.573,8.573,0,1,0,0,17.147h8.573V283Z" transform="translate(-111.943 -248.65)"/>
    <path id="Path_11750" data-name="Path 11750" class="cls-2" d="M150.573,245.5a8.573,8.573,0,1,1,0,17.147H142V245.5Z" transform="translate(-124.796 -232.583)"/>
    <path id="Path_11751" data-name="Path 11751" class="cls-3" d="M120.573,245.5a8.573,8.573,0,0,0,0,17.147h8.573V245.5Z" transform="translate(-111.943 -232.583)"/>
  </g>
</svg>
