<svg id="Group_11218" data-name="Group 11218" xmlns="http://www.w3.org/2000/svg" width="44.135" height="27.277" viewBox="0 0 44.135 27.277">
  <defs>
    <style>
      .cls-1 {
        fill: #ff5f00;
      }

      .cls-2 {
        fill: #eb001b;
      }

      .cls-3 {
        fill: #f79e1b;
      }
    </style>
  </defs>
  <rect id="Rectangle_2420" data-name="Rectangle 2420" class="cls-1" width="11.934" height="21.443" transform="translate(16.101 2.917)"/>
  <path id="Path_11831" data-name="Path 11831" class="cls-2" d="M16.859,13.638a13.675,13.675,0,0,1,5.19-10.721,13.633,13.633,0,1,0-8.41,24.36,13.554,13.554,0,0,0,8.41-2.917A13.618,13.618,0,0,1,16.859,13.638Z" transform="translate(0 0)"/>
  <path id="Path_11832" data-name="Path 11832" class="cls-3" d="M150.032,13.638A13.624,13.624,0,0,1,127.983,24.36a13.668,13.668,0,0,0,0-21.443,13.624,13.624,0,0,1,22.049,10.721Z" transform="translate(-105.896 0)"/>
</svg>
