<svg xmlns="http://www.w3.org/2000/svg" width="67.417" height="52.445" viewBox="0 0 67.417 52.445">
  <defs>
    <style>
      .cls-1 {
        fill: #fff;
      }

      .cls-2 {
        fill: #8d8b8b;
      }

      .cls-3 {
        fill: #5a5758;
      }

      .cls-4 {
        fill: #c1c0c1;
      }
    </style>
  </defs>
  <g id="Group_11581" data-name="Group 11581" transform="translate(-150.372 -307.072)">
    <path id="Path_12009" data-name="Path 12009" class="cls-1" d="M171.763,380.069V376.6a2.06,2.06,0,0,0-2.176-2.2,2.145,2.145,0,0,0-1.945.984,2.033,2.033,0,0,0-1.829-.984,1.829,1.829,0,0,0-1.62.822v-.683h-1.2v5.533H164.2V377a1.294,1.294,0,0,1,1.354-1.47c.8,0,1.2.521,1.2,1.458v3.078h1.216V377a1.3,1.3,0,0,1,1.354-1.47c.821,0,1.215.521,1.215,1.458v3.078h1.216m17.984-5.533h-1.967v-1.677h-1.215v1.677h-1.122v1.1h1.122v2.523c0,1.285.5,2.048,1.921,2.048a2.836,2.836,0,0,0,1.5-.428l-.347-1.031a2.218,2.218,0,0,1-1.065.312c-.6,0-.8-.37-.8-.926v-2.5h1.967Zm10.266-.139a1.633,1.633,0,0,0-1.458.81v-.671h-1.192v5.533h1.2v-3.1c0-.914.394-1.424,1.181-1.424a1.967,1.967,0,0,1,.752.139l.37-1.134A2.559,2.559,0,0,0,200.013,374.4Zm-15.52.579a4.141,4.141,0,0,0-2.256-.579c-1.4,0-2.3.671-2.3,1.771,0,.9.671,1.458,1.91,1.632l.567.081c.659.092.972.265.972.579,0,.428-.44.671-1.262.671a2.945,2.945,0,0,1-1.84-.579l-.567.937a4,4,0,0,0,2.4.717c1.6,0,2.522-.752,2.522-1.806,0-.972-.729-1.481-1.932-1.655l-.567-.081c-.52-.069-.937-.174-.937-.544,0-.4.394-.648,1.053-.648a3.575,3.575,0,0,1,1.725.474Zm32.244-.579a1.633,1.633,0,0,0-1.458.81v-.671h-1.192v5.533h1.2v-3.1c0-.914.394-1.424,1.181-1.424a1.97,1.97,0,0,1,.752.139l.37-1.134A2.563,2.563,0,0,0,216.737,374.4ZM201.228,377.3a2.8,2.8,0,0,0,2.952,2.9,2.9,2.9,0,0,0,1.99-.66l-.579-.972a2.431,2.431,0,0,1-1.446.5,1.774,1.774,0,0,1,0-3.541,2.432,2.432,0,0,1,1.446.5l.579-.972a2.9,2.9,0,0,0-1.99-.66A2.8,2.8,0,0,0,201.228,377.3Zm11.273,0v-2.767h-1.2v.671a2.1,2.1,0,0,0-1.747-.81,2.909,2.909,0,0,0,0,5.81,2.1,2.1,0,0,0,1.747-.81v.671h1.2Zm-4.479,0a1.675,1.675,0,1,1,1.678,1.77A1.659,1.659,0,0,1,208.022,377.3ZM193.5,374.4a2.908,2.908,0,0,0,.08,5.81,3.369,3.369,0,0,0,2.269-.775l-.591-.892a2.631,2.631,0,0,1-1.609.579,1.537,1.537,0,0,1-1.655-1.354H196.1c.011-.151.024-.3.024-.463A2.654,2.654,0,0,0,193.5,374.4Zm-.024,1.077a1.372,1.372,0,0,1,1.4,1.342H192A1.424,1.424,0,0,1,193.474,375.475Zm30.195,1.829v-4.988h-1.2v2.892a2.1,2.1,0,0,0-1.747-.81,2.909,2.909,0,0,0,0,5.81,2.1,2.1,0,0,0,1.747-.81v.671h1.2Zm-4.478,0a1.675,1.675,0,1,1,1.677,1.77A1.659,1.659,0,0,1,219.19,377.3Zm-40.646,0v-2.767h-1.2v.671a2.1,2.1,0,0,0-1.747-.81,2.909,2.909,0,0,0,0,5.81,2.1,2.1,0,0,0,1.747-.81v.671h1.2Zm-4.479,0a1.675,1.675,0,1,1,1.678,1.77A1.66,1.66,0,0,1,174.065,377.3Zm51.61,1.964a.562.562,0,0,1,.395.161.556.556,0,0,1,.121.176.526.526,0,0,1,.043.213.518.518,0,0,1-.043.212.556.556,0,0,1-.121.176.577.577,0,0,1-.177.118.54.54,0,0,1-.217.043.56.56,0,0,1-.222-.043.586.586,0,0,1-.179-.118.566.566,0,0,1-.119-.176.534.534,0,0,1-.043-.212.542.542,0,0,1,.043-.213.566.566,0,0,1,.119-.176.554.554,0,0,1,.179-.118A.56.56,0,0,1,225.675,379.267Zm0,.979a.4.4,0,0,0,.165-.034.425.425,0,0,0,.226-.228.426.426,0,0,0-.226-.562.42.42,0,0,0-.165-.033.436.436,0,0,0-.307.124.45.45,0,0,0-.091.137.439.439,0,0,0,0,.334.434.434,0,0,0,.091.136.438.438,0,0,0,.307.126Zm.032-.685a.235.235,0,0,1,.152.043.146.146,0,0,1,.053.119.14.14,0,0,1-.042.1.206.206,0,0,1-.121.05l.167.193h-.13l-.155-.192h-.05v.192h-.11v-.51Zm-.126.1v.136h.125a.122.122,0,0,0,.069-.017.056.056,0,0,0,.025-.052.055.055,0,0,0-.025-.051.13.13,0,0,0-.069-.016Z" transform="translate(-9.127 -20.85)"/>
    <rect id="Rectangle_2947" data-name="Rectangle 2947" class="cls-2" width="18.231" height="32.761" transform="translate(174.965 311.527)"/>
    <path id="Path_12010" data-name="Path 12010" class="cls-3" d="M185.043,346.124A20.8,20.8,0,0,1,193,329.744a20.834,20.834,0,1,0,0,32.761,20.8,20.8,0,0,1-7.958-16.38" transform="translate(-8.92 -18.217)"/>
    <path id="Path_12012" data-name="Path 12012" class="cls-4" d="M228.709,346.124A20.834,20.834,0,0,1,195,362.5a20.837,20.837,0,0,0,0-32.761,20.833,20.833,0,0,1,33.708,16.38" transform="translate(-10.92 -18.217)"/>
  </g>
</svg>
