<svg xmlns="http://www.w3.org/2000/svg" xmlns:xlink="http://www.w3.org/1999/xlink" width="15.5" height="15.5" viewBox="0 0 15.5 15.5">
  <defs>
    <style>
      .cls-1 {
        fill: #ff0956;
        stroke: #fff;
        stroke-width: 0.5px;
      }

      .cls-2 {
        clip-path: url(#clip-path);
      }
    </style>
    <clipPath id="clip-path">
      <path id="Icon" class="cls-1" d="M14.25,15H9.75A.751.751,0,0,1,9,14.25v-3a.751.751,0,0,1,.75-.75V9.75a2.25,2.25,0,0,1,4.5,0V10.5a.751.751,0,0,1,.75.75v3A.751.751,0,0,1,14.25,15ZM10.5,12v1.5h3V12ZM12,9a.751.751,0,0,0-.75.75V10.5h1.5V9.75A.751.751,0,0,0,12,9ZM6.75,12h-6A.751.751,0,0,1,0,11.25V.75A.751.751,0,0,1,.75,0h13.5A.751.751,0,0,1,15,.75v6a.75.75,0,1,1-1.5,0V6H1.5v4.5H6.75a.75.75,0,0,1,0,1.5ZM1.5,1.5V3h12V1.5ZM6,9H3.75a.75.75,0,1,1,0-1.5H6A.75.75,0,0,1,6,9Z"/>
    </clipPath>
  </defs>
  <g id="Group_45" data-name="Group 45" transform="translate(0.25 0.25)">
    <path id="Icon-2" data-name="Icon" class="cls-1" d="M14.25,15H9.75A.751.751,0,0,1,9,14.25v-3a.751.751,0,0,1,.75-.75V9.75a2.25,2.25,0,0,1,4.5,0V10.5a.751.751,0,0,1,.75.75v3A.751.751,0,0,1,14.25,15ZM10.5,12v1.5h3V12ZM12,9a.751.751,0,0,0-.75.75V10.5h1.5V9.75A.751.751,0,0,0,12,9ZM6.75,12h-6A.751.751,0,0,1,0,11.25V.75A.751.751,0,0,1,.75,0h13.5A.751.751,0,0,1,15,.75v6a.75.75,0,1,1-1.5,0V6H1.5v4.5H6.75a.75.75,0,0,1,0,1.5ZM1.5,1.5V3h12V1.5ZM6,9H3.75a.75.75,0,1,1,0-1.5H6A.75.75,0,0,1,6,9Z"/>
  </g>
</svg>
