<svg id="Group_12111" data-name="Group 12111" xmlns="http://www.w3.org/2000/svg" width="13.607" height="16.009" viewBox="0 0 13.607 16.009">
  <defs>
    <style>
      .cls-1, .cls-2 {
        fill: #2b2a35;
      }

      .cls-1 {
        fill-rule: evenodd;
      }

      .cls-2 {
        opacity: 0.4;
      }
    </style>
  </defs>
  <path id="Path_789" data-name="Path 789" class="cls-1" d="M1110.918,397.714h6.772a3.379,3.379,0,0,1,3.418,3.341v3.952a3.379,3.379,0,0,1-3.418,3.342h-6.772a3.38,3.38,0,0,1-3.418-3.342v-3.952A3.379,3.379,0,0,1,1110.918,397.714Zm3.378,6.9a.706.706,0,0,0,.72-.7v-1.766a.713.713,0,0,0-1.425,0v1.766A.7.7,0,0,0,1114.3,404.61Z" transform="translate(-1107.5 -392.34)"/>
  <path id="Path_790" data-name="Path 790" class="cls-2" d="M1119.317,395.319V396.5a3.26,3.26,0,0,0-.889-.119h-.536v-1.058a2.995,2.995,0,0,0-5.987-.016v1.074h-.52a3.013,3.013,0,0,0-.9.127v-1.185a4.42,4.42,0,0,1,8.837,0Z" transform="translate(-1108.094 -391)"/>
</svg>
