<svg xmlns="http://www.w3.org/2000/svg" width="43.661" height="43.661" viewBox="0 0 43.661 43.661">
  <defs>
    <style>
      .cls-1 {
        opacity: 0.51;
      }

      .cls-2 {
        fill: #919eab;
      }
    </style>
  </defs>
  <g id="Polaris-icon_Major_Mono_Customers" data-name="Polaris-icon/Major/Mono/Customers" class="cls-1">
    <path id="Shape" class="cls-2" d="M30.7,43.661H4.388a2.188,2.188,0,0,1-2.082-1.493L.114,35.62a2.165,2.165,0,0,1,.531-2.234c.293-.294,7.282-7.189,16.9-7.189,9.569,0,16.605,6.9,16.9,7.189a2.163,2.163,0,0,1,.527,2.234l-2.192,6.549A2.185,2.185,0,0,1,30.7,43.661Zm-13.157-13.1c-5.991,0-10.955,3.526-12.811,5.042L5.967,39.3H29.119l1.231-3.682C28.488,34.1,23.511,30.564,17.543,30.564Zm0-8.733A10.915,10.915,0,1,1,28.507,10.916,10.952,10.952,0,0,1,17.543,21.831Zm0-17.465a6.55,6.55,0,1,0,6.577,6.551A6.571,6.571,0,0,0,17.543,4.366Z" transform="translate(4.678)"/>
  </g>
</svg>
