<svg xmlns="http://www.w3.org/2000/svg" xmlns:xlink="http://www.w3.org/1999/xlink" width="42.207" height="42.206" viewBox="0 0 42.207 42.206">
  <defs>
    <style>
      .cls-1 {
        fill: #919eab;
      }

      .cls-2 {
        opacity: 0.51;
      }

      .cls-3 {
        clip-path: url(#clip-path);
      }
    </style>
    <clipPath id="clip-path">
      <path id="Icon" class="cls-1" d="M25.323,42.206H16.881a2.112,2.112,0,0,1-2.11-2.11V36.747a16.869,16.869,0,0,1-4.157-2.431L7.467,36.092a2.107,2.107,0,0,1-2.855-.764L.293,28.018a2.1,2.1,0,0,1-.22-1.62,2.123,2.123,0,0,1,1-1.292l3.289-1.857a16.254,16.254,0,0,1,0-4.294L1.074,17.1a2.123,2.123,0,0,1-1-1.292,2.1,2.1,0,0,1,.22-1.62l4.319-7.31a2.112,2.112,0,0,1,2.855-.764l3.147,1.774a16.989,16.989,0,0,1,4.157-2.431V2.11A2.112,2.112,0,0,1,16.881,0h8.442a2.112,2.112,0,0,1,2.11,2.11V5.457a17.04,17.04,0,0,1,4.159,2.431l3.147-1.774a2.112,2.112,0,0,1,2.855.764l4.319,7.31a2.112,2.112,0,0,1-.781,2.912l-3.289,1.856a16.254,16.254,0,0,1,0,4.294l3.289,1.857a2.123,2.123,0,0,1,1,1.292,2.093,2.093,0,0,1-.22,1.62l-4.319,7.31a2.107,2.107,0,0,1-2.855.764l-3.147-1.776a16.919,16.919,0,0,1-4.159,2.431V40.1A2.112,2.112,0,0,1,25.323,42.206ZM10.875,29.636a2.091,2.091,0,0,1,1.461.587,12.687,12.687,0,0,0,5.149,3.008,2.124,2.124,0,0,1,1.508,2.023v2.731h4.22V35.254a2.123,2.123,0,0,1,1.508-2.023,12.687,12.687,0,0,0,5.149-3.008,2.094,2.094,0,0,1,1.46-.587,2.117,2.117,0,0,1,1.037.272L35.011,31.4l2.171-3.675-2.716-1.533a2.119,2.119,0,0,1-1.02-2.3,12.43,12.43,0,0,0,0-5.58,2.1,2.1,0,0,1,1.02-2.3l2.716-1.533-2.171-3.675L32.367,12.3a2.127,2.127,0,0,1-1.04.273,2.09,2.09,0,0,1-1.457-.586,12.7,12.7,0,0,0-5.149-3.01,2.121,2.121,0,0,1-1.508-2.021V4.22h-4.22V6.951a2.122,2.122,0,0,1-1.508,2.021,12.7,12.7,0,0,0-5.149,3.01,2.1,2.1,0,0,1-2.5.313L7.2,10.805,5.022,14.48l2.716,1.533a2.1,2.1,0,0,1,1.024,2.3,12.287,12.287,0,0,0,0,5.58,2.093,2.093,0,0,1-1.024,2.3L5.022,27.724,7.2,31.4l2.644-1.491A2.112,2.112,0,0,1,10.875,29.636ZM21.1,29.543a8.441,8.441,0,1,1,8.44-8.44A8.45,8.45,0,0,1,21.1,29.543Zm0-12.661a4.22,4.22,0,1,0,4.22,4.22A4.225,4.225,0,0,0,21.1,16.883Z"/>
    </clipPath>
  </defs>
  <g id="Polaris-icon_Major_Mono_Settings" data-name="Polaris-icon/Major/Mono/Settings" class="cls-2" transform="translate(0)">
    <g id="Group_153" data-name="Group 153" transform="translate(0 0)">
      <path id="Icon-2" data-name="Icon" class="cls-1" d="M25.323,42.206H16.881a2.112,2.112,0,0,1-2.11-2.11V36.747a16.869,16.869,0,0,1-4.157-2.431L7.467,36.092a2.107,2.107,0,0,1-2.855-.764L.293,28.018a2.1,2.1,0,0,1-.22-1.62,2.123,2.123,0,0,1,1-1.292l3.289-1.857a16.254,16.254,0,0,1,0-4.294L1.074,17.1a2.123,2.123,0,0,1-1-1.292,2.1,2.1,0,0,1,.22-1.62l4.319-7.31a2.112,2.112,0,0,1,2.855-.764l3.147,1.774a16.989,16.989,0,0,1,4.157-2.431V2.11A2.112,2.112,0,0,1,16.881,0h8.442a2.112,2.112,0,0,1,2.11,2.11V5.457a17.04,17.04,0,0,1,4.159,2.431l3.147-1.774a2.112,2.112,0,0,1,2.855.764l4.319,7.31a2.112,2.112,0,0,1-.781,2.912l-3.289,1.856a16.254,16.254,0,0,1,0,4.294l3.289,1.857a2.123,2.123,0,0,1,1,1.292,2.093,2.093,0,0,1-.22,1.62l-4.319,7.31a2.107,2.107,0,0,1-2.855.764l-3.147-1.776a16.919,16.919,0,0,1-4.159,2.431V40.1A2.112,2.112,0,0,1,25.323,42.206ZM10.875,29.636a2.091,2.091,0,0,1,1.461.587,12.687,12.687,0,0,0,5.149,3.008,2.124,2.124,0,0,1,1.508,2.023v2.731h4.22V35.254a2.123,2.123,0,0,1,1.508-2.023,12.687,12.687,0,0,0,5.149-3.008,2.094,2.094,0,0,1,1.46-.587,2.117,2.117,0,0,1,1.037.272L35.011,31.4l2.171-3.675-2.716-1.533a2.119,2.119,0,0,1-1.02-2.3,12.43,12.43,0,0,0,0-5.58,2.1,2.1,0,0,1,1.02-2.3l2.716-1.533-2.171-3.675L32.367,12.3a2.127,2.127,0,0,1-1.04.273,2.09,2.09,0,0,1-1.457-.586,12.7,12.7,0,0,0-5.149-3.01,2.121,2.121,0,0,1-1.508-2.021V4.22h-4.22V6.951a2.122,2.122,0,0,1-1.508,2.021,12.7,12.7,0,0,0-5.149,3.01,2.1,2.1,0,0,1-2.5.313L7.2,10.805,5.022,14.48l2.716,1.533a2.1,2.1,0,0,1,1.024,2.3,12.287,12.287,0,0,0,0,5.58,2.093,2.093,0,0,1-1.024,2.3L5.022,27.724,7.2,31.4l2.644-1.491A2.112,2.112,0,0,1,10.875,29.636ZM21.1,29.543a8.441,8.441,0,1,1,8.44-8.44A8.45,8.45,0,0,1,21.1,29.543Zm0-12.661a4.22,4.22,0,1,0,4.22,4.22A4.225,4.225,0,0,0,21.1,16.883Z" transform="translate(0 0)"/>
    </g>
  </g>
</svg>
