<svg xmlns="http://www.w3.org/2000/svg" width="29.886" height="24.091" viewBox="0 0 29.886 24.091">
  <defs>
    <style>
      .cls-1 {
        fill: #ffd064;
      }

      .cls-2 {
        fill: #ffc250;
      }

      .cls-3 {
        fill: #29231a;
      }
    </style>
  </defs>
  <g id="Group_11297" data-name="Group 11297" transform="translate(0)">
    <g id="Group_11229" data-name="Group 11229" transform="translate(0.732 0.732)">
      <path id="Path_11877" data-name="Path 11877" class="cls-1" d="M131.794,246.16H108.039a2.334,2.334,0,0,1-2.334-2.334V225.866a2.334,2.334,0,0,1,2.334-2.334h23.755a2.334,2.334,0,0,1,2.334,2.334v17.961A2.334,2.334,0,0,1,131.794,246.16Z" transform="translate(-105.705 -223.532)"/>
    </g>
    <path id="Path_11878" data-name="Path 11878" class="cls-2" d="M319.2,223.532h-6.518a2.334,2.334,0,0,1,2.334,2.334v17.961a2.334,2.334,0,0,1-2.334,2.334H319.2a2.334,2.334,0,0,0,2.334-2.334V225.866A2.334,2.334,0,0,0,319.2,223.532Z" transform="translate(-292.375 -222.801)"/>
    <path id="Path_11879" data-name="Path 11879" class="cls-3" d="M119.362,228.574h7.766a.731.731,0,0,0,0-1.462h-7.766v-3.236a1.567,1.567,0,0,1,1.565-1.565h6.2a.731.731,0,0,0,0-1.462h-6.2a3.03,3.03,0,0,0-3.027,3.019,2.986,2.986,0,0,0-1.543-.428h-2.709v-6.911a.731.731,0,0,0-1.462,0v6.911h-2.709a2.986,2.986,0,0,0-1.543.428,3.03,3.03,0,0,0-3.027-3.019h-6.2a.731.731,0,0,0,0,1.462h6.2a1.567,1.567,0,0,1,1.565,1.565v3.236H98.706a.731.731,0,1,0,0,1.462h7.766v3.236a1.567,1.567,0,0,1-1.565,1.565h-6.2a.731.731,0,1,0,0,1.462h6.2a3.03,3.03,0,0,0,3.027-3.019,2.986,2.986,0,0,0,1.543.428h2.709v6.911a.731.731,0,1,0,1.462,0v-6.911h2.709a2.986,2.986,0,0,0,1.543-.428,3.03,3.03,0,0,0,3.027,3.019h6.2a.731.731,0,1,0,0-1.462h-6.2a1.567,1.567,0,0,1-1.565-1.565v-3.236Zm-1.462.667a1.544,1.544,0,0,1-1.543,1.543h-6.88a1.544,1.544,0,0,1-1.543-1.543v-2.8a1.544,1.544,0,0,1,1.543-1.543h6.88a1.544,1.544,0,0,1,1.543,1.543Z" transform="translate(-97.973 -215.797)"/>
    <g id="Group_11235" data-name="Group 11235" transform="translate(0)">
      <g id="Group_11234" data-name="Group 11234" transform="translate(0)">
        <g id="Group_11233" data-name="Group 11233">
          <path id="Path_11880" data-name="Path 11880" class="cls-3" d="M124.793,239.89H101.038a3.068,3.068,0,0,1-3.065-3.065V218.865a3.068,3.068,0,0,1,3.065-3.065h23.755a3.068,3.068,0,0,1,3.065,3.065v17.961A3.068,3.068,0,0,1,124.793,239.89Zm-23.755-22.628a1.6,1.6,0,0,0-1.6,1.6v17.961a1.6,1.6,0,0,0,1.6,1.6h23.755a1.6,1.6,0,0,0,1.6-1.6V218.865a1.6,1.6,0,0,0-1.6-1.6Z" transform="translate(-97.973 -215.8)"/>
        </g>
      </g>
    </g>
  </g>
</svg>
