<svg xmlns="http://www.w3.org/2000/svg" width="14" height="11.586" viewBox="0 0 14 11.586">
  <defs>
    <style>
      .cls-1 {
        fill: #fff;
      }
    </style>
  </defs>
  <path id="Union_54" data-name="Union 54" class="cls-1" d="M2.626,11.374.212,8.96a.725.725,0,0,1,0-1.024L2.626,5.522A.724.724,0,0,1,3.65,6.547L2.473,7.724h10.8a.724.724,0,1,1,0,1.448H2.473L3.65,10.35a.724.724,0,0,1-1.024,1.024Zm7.724-5.31a.724.724,0,0,1,0-1.024l1.178-1.177H.725a.724.724,0,1,1,0-1.449h10.8L10.35,1.236A.724.724,0,0,1,11.374.212l2.414,2.414a.725.725,0,0,1,0,1.024L11.374,6.064a.724.724,0,0,1-1.024,0Z" transform="translate(0 0)"/>
</svg>
